<svg width="50" height="50" viewBox="0 0 50 50" fill="none" xmlns="http://www.w3.org/2000/svg">
<g filter="url(#filter0_d_214_5266)">
<circle cx="23" cy="23" r="19" fill="url(#paint0_linear_214_5266)"/>
<path d="M23.4668 14.0088C33.6487 14.3447 35.319 24.6104 34.4316 25.4229C33.5347 26.2389 30.2457 26.1487 29.6465 25.7861C29.0484 25.4234 28.5648 22.2421 27.2891 22.1689C25.6942 22.0783 25.086 22.4621 25.0859 24.5557C25.0859 26.1882 26.3566 27.3282 27.4531 27.4189C27.4909 27.4184 31.573 27.3602 32.8359 27.4189C33.0349 27.4191 33.0037 27.5972 32.9355 27.6904C32.138 28.7787 29.3471 30.4114 27.5527 30.6836C26.6556 30.8196 24.6745 31.2511 24.0762 30.7979C23.4781 30.3444 23.761 26.3722 23.709 26.1162C23.6661 25.9059 23.5293 25.8172 23.3184 25.792C23.1082 25.8174 22.9725 25.9064 22.9297 26.1162C22.8776 26.3721 23.1603 30.3436 22.5625 30.7979C21.9644 31.2512 19.9833 30.8197 19.0859 30.6836C17.2917 30.4115 14.5008 28.7788 13.7031 27.6904C13.6348 27.5972 13.6034 27.4189 13.8027 27.4189C15.0718 27.36 19.1855 27.4189 19.1855 27.4189C20.282 27.3281 21.5527 26.1881 21.5527 24.5557C21.5527 22.4622 20.9443 22.0783 19.3496 22.1689C18.0739 22.2417 17.5902 25.4227 16.9922 25.7861C16.3935 26.1488 13.1043 26.2389 12.207 25.4229C11.3193 24.6115 12.9889 14.3444 23.1719 14.0088V14C23.2212 14.0007 23.2704 14.0028 23.3193 14.0039C23.3682 14.0028 23.4175 14.0007 23.4668 14V14.0088Z" fill="white"/>
</g>
<defs>
<filter id="filter0_d_214_5266" x="0" y="0" width="50" height="50" filterUnits="userSpaceOnUse" color-interpolation-filters="sRGB">
<feFlood flood-opacity="0" result="BackgroundImageFix"/>
<feColorMatrix in="SourceAlpha" type="matrix" values="0 0 0 0 0 0 0 0 0 0 0 0 0 0 0 0 0 0 127 0" result="hardAlpha"/>
<feOffset dx="2" dy="2"/>
<feGaussianBlur stdDeviation="3"/>
<feComposite in2="hardAlpha" operator="out"/>
<feColorMatrix type="matrix" values="0 0 0 0 0 0 0 0 0 0 0 0 0 0 0 0 0 0 0.25 0"/>
<feBlend mode="normal" in2="BackgroundImageFix" result="effect1_dropShadow_214_5266"/>
<feBlend mode="normal" in="SourceGraphic" in2="effect1_dropShadow_214_5266" result="shape"/>
</filter>
<linearGradient id="paint0_linear_214_5266" x1="23" y1="0.122449" x2="23" y2="48.5918" gradientUnits="userSpaceOnUse">
<stop stop-color="#023E8C"/>
<stop offset="1" stop-color="#2A73D2"/>
</linearGradient>
</defs>
</svg>
