<svg width="262" height="116" viewBox="0 0 262 116" fill="none" xmlns="http://www.w3.org/2000/svg">
<g filter="url(#filter0_d_618_1028)">
<rect x="1" y="25" width="260" height="90" rx="5" fill="white"/>
</g>
<path d="M68.086 1.76V0.444H71.46V1.76H68.086ZM77.648 12.442H76.192V0.192H77.648V12.442ZM75.128 11.994H73.672V6.352H72.006V5.008H73.672V0.402H75.128V11.994ZM72.524 4.028H70.508V4.35C70.508 4.882 70.5827 5.372 70.732 5.82C70.8813 6.268 71.0727 6.67867 71.306 7.052C71.5487 7.444 71.8147 7.78467 72.104 8.074C72.4027 8.354 72.7013 8.592 73 8.788L72.02 9.796C71.796 9.628 71.572 9.44133 71.348 9.236C71.1333 9.03067 70.928 8.81133 70.732 8.578C70.536 8.33533 70.354 8.088 70.186 7.836C70.0273 7.57467 69.892 7.30867 69.78 7.038C69.668 7.318 69.528 7.598 69.36 7.878C69.192 8.14867 69.0053 8.41467 68.8 8.676C68.604 8.93733 68.394 9.18467 68.17 9.418C67.946 9.642 67.722 9.84267 67.498 10.02L66.49 9.054C66.7793 8.858 67.0733 8.60133 67.372 8.284C67.6707 7.96667 67.946 7.598 68.198 7.178C68.4407 6.77667 68.6413 6.34267 68.8 5.876C68.9587 5.40933 69.038 4.924 69.038 4.42V4.028H66.994V2.74H72.524V4.028ZM86.9689 10.748C86.9689 10.552 86.9176 10.3747 86.8149 10.216C86.7216 10.048 86.5909 9.90333 86.4229 9.782C86.2549 9.66067 86.0542 9.56733 85.8209 9.502C85.5969 9.42733 85.3496 9.39 85.0789 9.39C84.8082 9.39 84.5562 9.42733 84.3229 9.502C84.0989 9.56733 83.9029 9.66067 83.7349 9.782C83.5669 9.90333 83.4316 10.048 83.3289 10.216C83.2356 10.3747 83.1889 10.552 83.1889 10.748C83.1889 10.944 83.2356 11.126 83.3289 11.294C83.4316 11.462 83.5669 11.602 83.7349 11.714C83.9029 11.8353 84.0989 11.9287 84.3229 11.994C84.5562 12.0687 84.8082 12.106 85.0789 12.106C85.3402 12.106 85.5876 12.0687 85.8209 11.994C86.0542 11.9287 86.2549 11.8353 86.4229 11.714C86.5909 11.602 86.7216 11.462 86.8149 11.294C86.9176 11.126 86.9689 10.944 86.9689 10.748ZM85.1349 3.426C84.7429 3.902 84.1922 4.322 83.4829 4.686C82.7829 5.05 81.9802 5.32533 81.0749 5.512L80.3749 4.35C81.4482 4.14467 82.3769 3.79933 83.1609 3.314C83.8609 2.87533 84.2389 2.38533 84.2949 1.844H80.9769V0.528H89.2369V1.844H85.9609C86.0169 2.38533 86.3949 2.87067 87.0949 3.3C87.8509 3.776 88.7842 4.126 89.8949 4.35L89.1949 5.512C88.2616 5.32533 87.4496 5.05 86.7589 4.686C86.0776 4.322 85.5362 3.902 85.1349 3.426ZM88.4809 10.748C88.4809 11.1027 88.3969 11.434 88.2289 11.742C88.0702 12.0593 87.8416 12.3393 87.5429 12.582C87.2536 12.8247 86.8989 13.016 86.4789 13.156C86.0589 13.296 85.5922 13.366 85.0789 13.366C84.5656 13.366 84.0989 13.296 83.6789 13.156C83.2589 13.016 82.8996 12.8247 82.6009 12.582C82.3116 12.3393 82.0829 12.0593 81.9149 11.742C81.7562 11.434 81.6769 11.1027 81.6769 10.748C81.6769 10.4493 81.7376 10.1647 81.8589 9.894C81.9802 9.614 82.1576 9.362 82.3909 9.138C82.6242 8.90467 82.8996 8.70867 83.2169 8.55C83.5436 8.382 83.9122 8.26533 84.3229 8.2V7.346H79.1989V6.086H90.9589V7.346H85.8489V8.214C86.2502 8.27933 86.6142 8.396 86.9409 8.564C87.2676 8.72267 87.5429 8.914 87.7669 9.138C88.0002 9.362 88.1776 9.614 88.2989 9.894C88.4202 10.1647 88.4809 10.4493 88.4809 10.748ZM95.9976 3.86V2.6H103.278V3.86H95.9976ZM97.5096 1.718V0.429999H101.808V1.718H97.5096ZM101.108 7.01C101.108 6.59 100.963 6.254 100.674 6.002C100.394 5.74067 100.053 5.61 99.6516 5.61C99.4556 5.61 99.2643 5.64733 99.0776 5.722C98.9003 5.78733 98.7416 5.88067 98.6016 6.002C98.471 6.12333 98.3636 6.27267 98.2796 6.45C98.205 6.618 98.1676 6.80467 98.1676 7.01C98.1676 7.22467 98.205 7.42067 98.2796 7.598C98.3636 7.766 98.471 7.91533 98.6016 8.046C98.7416 8.17667 98.9003 8.27933 99.0776 8.354C99.2643 8.41933 99.4556 8.452 99.6516 8.452C99.8476 8.452 100.034 8.41933 100.212 8.354C100.389 8.27933 100.543 8.17667 100.674 8.046C100.814 7.91533 100.921 7.766 100.996 7.598C101.07 7.42067 101.108 7.22467 101.108 7.01ZM102.522 7.01C102.522 7.41133 102.442 7.77533 102.284 8.102C102.125 8.42867 101.915 8.70867 101.654 8.942C101.392 9.17533 101.084 9.35733 100.73 9.488C100.384 9.60933 100.025 9.67 99.6516 9.67C99.269 9.67 98.9003 9.60933 98.5456 9.488C98.2003 9.35733 97.8923 9.17533 97.6216 8.942C97.3603 8.70867 97.1503 8.42867 96.9916 8.102C96.833 7.77533 96.7536 7.41133 96.7536 7.01C96.7536 6.60867 96.833 6.24933 96.9916 5.932C97.1596 5.60533 97.3743 5.33 97.6356 5.106C97.9063 4.87267 98.2143 4.69533 98.5596 4.574C98.9143 4.45267 99.2783 4.392 99.6516 4.392C100.025 4.392 100.384 4.45733 100.73 4.588C101.075 4.70933 101.378 4.88667 101.64 5.12C101.91 5.344 102.125 5.61933 102.284 5.946C102.442 6.26333 102.522 6.618 102.522 7.01ZM104.734 0.192H106.246V12.442H104.734V0.192ZM108.161 10.818V9.558H119.921V10.818H108.161ZM114.097 4.224C113.695 4.93333 113.126 5.56333 112.389 6.114C111.651 6.66467 110.83 7.122 109.925 7.486L109.057 6.352C109.533 6.184 110.018 5.95533 110.513 5.666C111.007 5.37667 111.465 5.036 111.885 4.644C112.286 4.27067 112.617 3.86467 112.879 3.426C113.149 2.978 113.285 2.516 113.285 2.04V0.584H114.909V2.04C114.909 2.516 115.035 2.978 115.287 3.426C115.539 3.86467 115.875 4.27067 116.295 4.644C116.715 5.036 117.172 5.37667 117.667 5.666C118.161 5.95533 118.651 6.184 119.137 6.352L118.269 7.486C117.373 7.122 116.551 6.66467 115.805 6.114C115.058 5.554 114.489 4.924 114.097 4.224ZM120.799 11.098V9.838H125.909V7.696H122.647V0.836H130.641V2.096H124.145V3.608H130.473V4.896H124.145V6.436H130.851V7.696H127.435V9.838H132.559V11.098H120.799ZM142.65 0.192H144.162V12.442H142.65V0.192ZM135.79 7.85C136.276 7.85933 136.78 7.85 137.302 7.822C137.834 7.794 138.357 7.752 138.87 7.696C139.374 7.64 139.86 7.57933 140.326 7.514C140.793 7.43933 141.222 7.36 141.614 7.276L141.796 8.564C140.807 8.76 139.673 8.914 138.394 9.026C137.116 9.12867 135.744 9.17067 134.278 9.152V4.35H138.282V2.194H134.278V0.906H139.752V5.638H135.79V7.85ZM154.885 0.906L150.839 12.666H149.369L153.415 0.906H154.885ZM164.268 7.626V5.092H161.244V7.626H164.268ZM168.104 0.192H169.616V12.442H168.104V0.192ZM159.732 8.9V0.933999H161.244V3.804H164.268V0.933999H165.766V8.9H159.732ZM182.199 12.736H174.485V8.578H176.025V11.462H182.199V12.736ZM183.851 4.91H181.877V9.334H180.365V0.192H181.877V3.622H183.851V4.91ZM172.175 7.066V0.891999H178.195V7.066H172.175ZM176.697 2.166H173.687V5.792H176.697V2.166ZM184.17 11.098V9.838H189.28V6.996H186.088V0.877999H193.984V2.138H187.586V5.736H194.166V6.996H190.806V9.838H195.93V11.098H184.17Z" fill="black"/>
<line x1="42" y1="60.775" x2="170" y2="60.775" stroke="black" stroke-width="0.2" stroke-dasharray="1 1"/>
<line x1="42" y1="44.775" x2="170" y2="44.775" stroke="black" stroke-width="0.2" stroke-dasharray="1 1"/>
<line x1="42" y1="76.775" x2="170" y2="76.775" stroke="black" stroke-width="0.2" stroke-dasharray="1 1"/>
<line x1="42" y1="92.775" x2="170" y2="92.775" stroke="black" stroke-width="0.2"/>
<path d="M46.842 96.388C46.498 96.388 46.262 96.584 46.134 96.976C46.058 97.208 46.02 97.562 46.02 98.038C46.02 98.518 46.058 98.872 46.134 99.1C46.258 99.496 46.494 99.694 46.842 99.694C47.186 99.694 47.422 99.496 47.55 99.1C47.626 98.868 47.664 98.514 47.664 98.038C47.664 97.562 47.626 97.208 47.55 96.976C47.422 96.584 47.186 96.388 46.842 96.388ZM46.842 95.77C47.386 95.77 47.782 96.026 48.03 96.538C48.218 96.926 48.312 97.426 48.312 98.038C48.312 99.55 47.822 100.306 46.842 100.306C45.862 100.306 45.372 99.55 45.372 98.038C45.372 97.418 45.464 96.918 45.648 96.538C45.896 96.026 46.294 95.77 46.842 95.77ZM48.9567 99.574C49.2087 99.678 49.4727 99.73 49.7487 99.73C50.4847 99.73 50.9027 99.284 51.0027 98.392C50.7867 98.62 50.5087 98.734 50.1687 98.734C49.8007 98.734 49.4927 98.63 49.2447 98.422C48.9287 98.166 48.7707 97.778 48.7707 97.258C48.7707 96.806 48.8987 96.446 49.1547 96.178C49.4227 95.898 49.7827 95.758 50.2347 95.758C51.1907 95.758 51.6687 96.466 51.6687 97.882C51.6687 98.606 51.5267 99.176 51.2427 99.592C50.9107 100.08 50.3947 100.324 49.6947 100.324C49.4627 100.324 49.2007 100.29 48.9087 100.222L48.9567 99.574ZM50.2227 96.364C49.9667 96.364 49.7647 96.446 49.6167 96.61C49.4727 96.774 49.4007 96.988 49.4007 97.252C49.4007 97.84 49.6567 98.134 50.1687 98.134C50.4247 98.134 50.6287 98.056 50.7807 97.9C50.9247 97.752 50.9967 97.552 50.9967 97.3C50.9967 97.036 50.9307 96.816 50.7987 96.64C50.6627 96.456 50.4707 96.364 50.2227 96.364ZM53.3153 96.28C53.3153 96.408 53.3713 96.514 53.4833 96.598C53.5953 96.678 53.7353 96.718 53.9033 96.718C53.9833 96.718 54.0573 96.708 54.1253 96.688C54.1973 96.664 54.2593 96.634 54.3113 96.598C54.3673 96.558 54.4113 96.512 54.4433 96.46C54.4753 96.404 54.4913 96.344 54.4913 96.28C54.4913 96.156 54.4333 96.054 54.3173 95.974C54.2013 95.89 54.0633 95.848 53.9033 95.848C53.7353 95.848 53.5953 95.89 53.4833 95.974C53.3713 96.054 53.3153 96.156 53.3153 96.28ZM53.4233 98.644V97.918C53.1953 97.93 52.9793 97.938 52.7753 97.942C52.5753 97.946 52.3913 97.948 52.2233 97.948L52.1813 97.39C52.4133 97.39 52.6833 97.386 52.9913 97.378C53.2993 97.37 53.6233 97.356 53.9633 97.336C54.3033 97.32 54.6253 97.3 54.9293 97.276C55.2373 97.252 55.4933 97.224 55.6973 97.192L55.7573 97.744C55.5493 97.776 55.2973 97.804 55.0013 97.828C54.7093 97.852 54.4013 97.872 54.0773 97.888V98.644H53.4233ZM54.7493 98.47V97.996H55.9853V95.368H56.6333V98.644H55.9853V98.47H54.7493ZM52.6733 96.28C52.6733 96.16 52.7033 96.042 52.7633 95.926C52.8233 95.81 52.9113 95.708 53.0273 95.62C53.1353 95.54 53.2653 95.476 53.4173 95.428C53.5693 95.376 53.7313 95.35 53.9033 95.35C54.0713 95.35 54.2313 95.376 54.3833 95.428C54.5353 95.476 54.6653 95.54 54.7733 95.62C54.8893 95.708 54.9773 95.81 55.0373 95.926C55.1013 96.042 55.1333 96.16 55.1333 96.28C55.1333 96.404 55.1013 96.524 55.0373 96.64C54.9773 96.756 54.8893 96.858 54.7733 96.946C54.6653 97.026 54.5353 97.09 54.3833 97.138C54.2313 97.186 54.0713 97.21 53.9033 97.21C53.7313 97.21 53.5693 97.186 53.4173 97.138C53.2653 97.09 53.1353 97.026 53.0273 96.946C52.9113 96.858 52.8233 96.756 52.7633 96.64C52.7033 96.524 52.6733 96.404 52.6733 96.28ZM53.4953 100.906V99.556H55.9853V99.28H53.4893V98.746H56.6333V100.072H54.1373V100.366H56.7653V100.906H53.4953Z" fill="#959595"/>
<path d="M86.058 100.282H85.41V96.64L84.846 97.114L84.468 96.7L85.518 95.806H86.058V100.282ZM88.6547 96.388C88.3107 96.388 88.0747 96.584 87.9467 96.976C87.8707 97.208 87.8327 97.562 87.8327 98.038C87.8327 98.518 87.8707 98.872 87.9467 99.1C88.0707 99.496 88.3067 99.694 88.6547 99.694C88.9987 99.694 89.2347 99.496 89.3627 99.1C89.4387 98.868 89.4767 98.514 89.4767 98.038C89.4767 97.562 89.4387 97.208 89.3627 96.976C89.2347 96.584 88.9987 96.388 88.6547 96.388ZM88.6547 95.77C89.1987 95.77 89.5947 96.026 89.8427 96.538C90.0307 96.926 90.1247 97.426 90.1247 98.038C90.1247 99.55 89.6347 100.306 88.6547 100.306C87.6747 100.306 87.1847 99.55 87.1847 98.038C87.1847 97.418 87.2767 96.918 87.4607 96.538C87.7087 96.026 88.1067 95.77 88.6547 95.77ZM91.7294 96.28C91.7294 96.408 91.7854 96.514 91.8974 96.598C92.0094 96.678 92.1494 96.718 92.3174 96.718C92.3974 96.718 92.4714 96.708 92.5394 96.688C92.6114 96.664 92.6734 96.634 92.7254 96.598C92.7814 96.558 92.8254 96.512 92.8574 96.46C92.8894 96.404 92.9054 96.344 92.9054 96.28C92.9054 96.156 92.8474 96.054 92.7314 95.974C92.6154 95.89 92.4774 95.848 92.3174 95.848C92.1494 95.848 92.0094 95.89 91.8974 95.974C91.7854 96.054 91.7294 96.156 91.7294 96.28ZM91.8374 98.644V97.918C91.6094 97.93 91.3934 97.938 91.1894 97.942C90.9894 97.946 90.8054 97.948 90.6374 97.948L90.5954 97.39C90.8274 97.39 91.0974 97.386 91.4054 97.378C91.7134 97.37 92.0374 97.356 92.3774 97.336C92.7174 97.32 93.0394 97.3 93.3434 97.276C93.6514 97.252 93.9074 97.224 94.1114 97.192L94.1714 97.744C93.9634 97.776 93.7114 97.804 93.4154 97.828C93.1234 97.852 92.8154 97.872 92.4914 97.888V98.644H91.8374ZM93.1634 98.47V97.996H94.3994V95.368H95.0474V98.644H94.3994V98.47H93.1634ZM91.0874 96.28C91.0874 96.16 91.1174 96.042 91.1774 95.926C91.2374 95.81 91.3254 95.708 91.4414 95.62C91.5494 95.54 91.6794 95.476 91.8314 95.428C91.9834 95.376 92.1454 95.35 92.3174 95.35C92.4854 95.35 92.6454 95.376 92.7974 95.428C92.9494 95.476 93.0794 95.54 93.1874 95.62C93.3034 95.708 93.3914 95.81 93.4514 95.926C93.5154 96.042 93.5474 96.16 93.5474 96.28C93.5474 96.404 93.5154 96.524 93.4514 96.64C93.3914 96.756 93.3034 96.858 93.1874 96.946C93.0794 97.026 92.9494 97.09 92.7974 97.138C92.6454 97.186 92.4854 97.21 92.3174 97.21C92.1454 97.21 91.9834 97.186 91.8314 97.138C91.6794 97.09 91.5494 97.026 91.4414 96.946C91.3254 96.858 91.2374 96.756 91.1774 96.64C91.1174 96.524 91.0874 96.404 91.0874 96.28ZM91.9094 100.906V99.556H94.3994V99.28H91.9034V98.746H95.0474V100.072H92.5514V100.366H95.1794V100.906H91.9094Z" fill="#959595"/>
<path d="M124.058 100.282H123.41V96.64L122.846 97.114L122.468 96.7L123.518 95.806H124.058V100.282ZM126.871 100.282H126.223V96.64L125.659 97.114L125.281 96.7L126.331 95.806H126.871V100.282ZM129.143 96.28C129.143 96.408 129.199 96.514 129.311 96.598C129.423 96.678 129.563 96.718 129.731 96.718C129.811 96.718 129.885 96.708 129.953 96.688C130.025 96.664 130.087 96.634 130.139 96.598C130.195 96.558 130.239 96.512 130.271 96.46C130.303 96.404 130.319 96.344 130.319 96.28C130.319 96.156 130.261 96.054 130.145 95.974C130.029 95.89 129.891 95.848 129.731 95.848C129.563 95.848 129.423 95.89 129.311 95.974C129.199 96.054 129.143 96.156 129.143 96.28ZM129.251 98.644V97.918C129.023 97.93 128.807 97.938 128.603 97.942C128.403 97.946 128.219 97.948 128.051 97.948L128.009 97.39C128.241 97.39 128.511 97.386 128.819 97.378C129.127 97.37 129.451 97.356 129.791 97.336C130.131 97.32 130.453 97.3 130.757 97.276C131.065 97.252 131.321 97.224 131.525 97.192L131.585 97.744C131.377 97.776 131.125 97.804 130.829 97.828C130.537 97.852 130.229 97.872 129.905 97.888V98.644H129.251ZM130.577 98.47V97.996H131.813V95.368H132.461V98.644H131.813V98.47H130.577ZM128.501 96.28C128.501 96.16 128.531 96.042 128.591 95.926C128.651 95.81 128.739 95.708 128.855 95.62C128.963 95.54 129.093 95.476 129.245 95.428C129.397 95.376 129.559 95.35 129.731 95.35C129.899 95.35 130.059 95.376 130.211 95.428C130.363 95.476 130.493 95.54 130.601 95.62C130.717 95.708 130.805 95.81 130.865 95.926C130.929 96.042 130.961 96.16 130.961 96.28C130.961 96.404 130.929 96.524 130.865 96.64C130.805 96.756 130.717 96.858 130.601 96.946C130.493 97.026 130.363 97.09 130.211 97.138C130.059 97.186 129.899 97.21 129.731 97.21C129.559 97.21 129.397 97.186 129.245 97.138C129.093 97.09 128.963 97.026 128.855 96.946C128.739 96.858 128.651 96.756 128.591 96.64C128.531 96.524 128.501 96.404 128.501 96.28ZM129.323 100.906V99.556H131.813V99.28H129.317V98.746H132.461V100.072H129.965V100.366H132.593V100.906H129.323Z" fill="#959595"/>
<path d="M162.058 100.282H161.41V96.64L160.846 97.114L160.468 96.7L161.518 95.806H162.058V100.282ZM165.879 100.282H163.185L163.191 99.748L164.175 98.638C164.811 97.914 165.129 97.356 165.129 96.964C165.129 96.78 165.069 96.632 164.949 96.52C164.833 96.408 164.685 96.352 164.505 96.352C164.193 96.352 163.837 96.466 163.437 96.694L163.323 96.076C163.739 95.864 164.123 95.758 164.475 95.758C164.863 95.758 165.171 95.854 165.399 96.046C165.655 96.254 165.783 96.562 165.783 96.97C165.783 97.426 165.413 98.09 164.673 98.962L164.055 99.688H165.879V100.282ZM167.729 96.28C167.729 96.408 167.785 96.514 167.897 96.598C168.009 96.678 168.149 96.718 168.317 96.718C168.397 96.718 168.471 96.708 168.539 96.688C168.611 96.664 168.673 96.634 168.725 96.598C168.781 96.558 168.825 96.512 168.857 96.46C168.889 96.404 168.905 96.344 168.905 96.28C168.905 96.156 168.847 96.054 168.731 95.974C168.615 95.89 168.477 95.848 168.317 95.848C168.149 95.848 168.009 95.89 167.897 95.974C167.785 96.054 167.729 96.156 167.729 96.28ZM167.837 98.644V97.918C167.609 97.93 167.393 97.938 167.189 97.942C166.989 97.946 166.805 97.948 166.637 97.948L166.595 97.39C166.827 97.39 167.097 97.386 167.405 97.378C167.713 97.37 168.037 97.356 168.377 97.336C168.717 97.32 169.039 97.3 169.343 97.276C169.651 97.252 169.907 97.224 170.111 97.192L170.171 97.744C169.963 97.776 169.711 97.804 169.415 97.828C169.123 97.852 168.815 97.872 168.491 97.888V98.644H167.837ZM169.163 98.47V97.996H170.399V95.368H171.047V98.644H170.399V98.47H169.163ZM167.087 96.28C167.087 96.16 167.117 96.042 167.177 95.926C167.237 95.81 167.325 95.708 167.441 95.62C167.549 95.54 167.679 95.476 167.831 95.428C167.983 95.376 168.145 95.35 168.317 95.35C168.485 95.35 168.645 95.376 168.797 95.428C168.949 95.476 169.079 95.54 169.187 95.62C169.303 95.708 169.391 95.81 169.451 95.926C169.515 96.042 169.547 96.16 169.547 96.28C169.547 96.404 169.515 96.524 169.451 96.64C169.391 96.756 169.303 96.858 169.187 96.946C169.079 97.026 168.949 97.09 168.797 97.138C168.645 97.186 168.485 97.21 168.317 97.21C168.145 97.21 167.983 97.186 167.831 97.138C167.679 97.09 167.549 97.026 167.441 96.946C167.325 96.858 167.237 96.756 167.177 96.64C167.117 96.524 167.087 96.404 167.087 96.28ZM167.909 100.906V99.556H170.399V99.28H167.903V98.746H171.047V100.072H168.551V100.366H171.179V100.906H167.909Z" fill="#959595"/>
<path d="M26.156 43.31L24.512 47.282H23.822L25.472 43.4H23.426V42.806H26.156V43.31ZM27.7127 47.66H26.9687V46.946H27.7127V47.66ZM31.0411 47.282H28.3471L28.3531 46.748L29.3371 45.638C29.9731 44.914 30.2911 44.356 30.2911 43.964C30.2911 43.78 30.2311 43.632 30.1111 43.52C29.9951 43.408 29.8471 43.352 29.6671 43.352C29.3551 43.352 28.9991 43.466 28.5991 43.694L28.4851 43.076C28.9011 42.864 29.2851 42.758 29.6371 42.758C30.0251 42.758 30.3331 42.854 30.5611 43.046C30.8171 43.254 30.9451 43.562 30.9451 43.97C30.9451 44.426 30.5751 45.09 29.8351 45.962L29.2171 46.688H31.0411V47.282ZM34.6737 47.258H33.8337L32.5377 45.872V47.258H31.8957V42.482H32.5377V45.026L33.6957 43.934H34.5237L32.9397 45.428L34.6737 47.258ZM36.3023 44.528C35.7943 44.528 35.5403 44.882 35.5403 45.59C35.5403 46.246 35.7863 46.574 36.2783 46.574C36.5423 46.574 36.7423 46.482 36.8783 46.298C37.0023 46.126 37.0643 45.89 37.0643 45.59C37.0643 45.214 37.0023 44.944 36.8783 44.78C36.7583 44.612 36.5663 44.528 36.3023 44.528ZM37.6703 44.018V46.586C37.6703 47.622 37.1663 48.14 36.1583 48.14C35.7863 48.14 35.4483 48.08 35.1443 47.96L35.1983 47.348C35.4943 47.496 35.8163 47.57 36.1643 47.57C36.7363 47.57 37.0323 47.318 37.0523 46.814L37.0583 46.784C36.8823 47.032 36.6223 47.156 36.2783 47.156C35.8103 47.156 35.4523 46.984 35.2043 46.64C34.9963 46.356 34.8923 46 34.8923 45.572C34.8923 45.064 35.0023 44.67 35.2223 44.39C35.4583 44.094 35.7983 43.946 36.2423 43.946C36.6063 43.946 36.8803 44.038 37.0643 44.222V44.018H37.6703Z" fill="#959595"/>
<path d="M26.156 60.31L24.512 64.282H23.822L25.472 60.4H23.426V59.806H26.156V60.31ZM27.7127 64.66H26.9687V63.946H27.7127V64.66ZM29.8171 60.388C29.4731 60.388 29.2371 60.584 29.1091 60.976C29.0331 61.208 28.9951 61.562 28.9951 62.038C28.9951 62.518 29.0331 62.872 29.1091 63.1C29.2331 63.496 29.4691 63.694 29.8171 63.694C30.1611 63.694 30.3971 63.496 30.5251 63.1C30.6011 62.868 30.6391 62.514 30.6391 62.038C30.6391 61.562 30.6011 61.208 30.5251 60.976C30.3971 60.584 30.1611 60.388 29.8171 60.388ZM29.8171 59.77C30.3611 59.77 30.7571 60.026 31.0051 60.538C31.1931 60.926 31.2871 61.426 31.2871 62.038C31.2871 63.55 30.7971 64.306 29.8171 64.306C28.8371 64.306 28.3471 63.55 28.3471 62.038C28.3471 61.418 28.4391 60.918 28.6231 60.538C28.8711 60.026 29.2691 59.77 29.8171 59.77ZM34.6737 64.258H33.8337L32.5377 62.872V64.258H31.8957V59.482H32.5377V62.026L33.6957 60.934H34.5237L32.9397 62.428L34.6737 64.258ZM36.3023 61.528C35.7943 61.528 35.5403 61.882 35.5403 62.59C35.5403 63.246 35.7863 63.574 36.2783 63.574C36.5423 63.574 36.7423 63.482 36.8783 63.298C37.0023 63.126 37.0643 62.89 37.0643 62.59C37.0643 62.214 37.0023 61.944 36.8783 61.78C36.7583 61.612 36.5663 61.528 36.3023 61.528ZM37.6703 61.018V63.586C37.6703 64.622 37.1663 65.14 36.1583 65.14C35.7863 65.14 35.4483 65.08 35.1443 64.96L35.1983 64.348C35.4943 64.496 35.8163 64.57 36.1643 64.57C36.7363 64.57 37.0323 64.318 37.0523 63.814L37.0583 63.784C36.8823 64.032 36.6223 64.156 36.2783 64.156C35.8103 64.156 35.4523 63.984 35.2043 63.64C34.9963 63.356 34.8923 63 34.8923 62.572C34.8923 62.064 35.0023 61.67 35.2223 61.39C35.4583 61.094 35.7983 60.946 36.2423 60.946C36.6063 60.946 36.8803 61.038 37.0643 61.222V61.018H37.6703Z" fill="#959595"/>
<path d="M26.126 75.502C25.882 75.41 25.622 75.364 25.346 75.364C24.59 75.364 24.166 75.818 24.074 76.726C24.298 76.478 24.576 76.354 24.908 76.354C25.272 76.354 25.578 76.452 25.826 76.648C26.142 76.9 26.3 77.28 26.3 77.788C26.3 78.268 26.172 78.644 25.916 78.916C25.664 79.188 25.308 79.324 24.848 79.324C23.892 79.324 23.414 78.616 23.414 77.2C23.414 76.46 23.56 75.884 23.852 75.472C24.196 74.996 24.712 74.758 25.4 74.758C25.636 74.758 25.892 74.796 26.168 74.872L26.126 75.502ZM24.908 76.96C24.652 76.96 24.448 77.036 24.296 77.188C24.148 77.336 24.074 77.532 24.074 77.776C24.074 78.036 24.142 78.254 24.278 78.43C24.426 78.626 24.62 78.724 24.86 78.724C25.116 78.724 25.316 78.638 25.46 78.466C25.604 78.306 25.676 78.094 25.676 77.83C25.676 77.25 25.42 76.96 24.908 76.96ZM27.7127 79.66H26.9687V78.946H27.7127V79.66ZM29.8111 77.23C29.4991 77.354 29.2811 77.474 29.1571 77.59C29.0291 77.718 28.9651 77.88 28.9651 78.076C28.9651 78.26 29.0491 78.414 29.2171 78.538C29.3931 78.666 29.5931 78.73 29.8171 78.73C30.0691 78.73 30.2691 78.674 30.4171 78.562C30.5851 78.438 30.6691 78.262 30.6691 78.034C30.6691 77.85 30.5891 77.696 30.4291 77.572C30.3131 77.48 30.1071 77.366 29.8111 77.23ZM29.8171 76.678C30.2931 76.442 30.5311 76.188 30.5311 75.916C30.5311 75.752 30.4571 75.616 30.3091 75.508C30.1731 75.408 30.0091 75.358 29.8171 75.358C29.6091 75.358 29.4371 75.41 29.3011 75.514C29.1651 75.614 29.0971 75.748 29.0971 75.916C29.0971 76.088 29.1711 76.242 29.3191 76.378C29.3711 76.422 29.4371 76.47 29.5171 76.522C29.6011 76.57 29.7011 76.622 29.8171 76.678ZM30.4531 76.93C31.0211 77.182 31.3051 77.57 31.3051 78.094C31.3051 78.518 31.1411 78.838 30.8131 79.054C30.5411 79.234 30.2091 79.324 29.8171 79.324C29.4291 79.324 29.0971 79.228 28.8211 79.036C28.4931 78.816 28.3291 78.502 28.3291 78.094C28.3291 77.578 28.6011 77.192 29.1451 76.936C28.6851 76.66 28.4551 76.302 28.4551 75.862C28.4551 75.49 28.6191 75.202 28.9471 74.998C29.2031 74.838 29.4931 74.758 29.8171 74.758C30.1811 74.758 30.4871 74.842 30.7351 75.01C31.0231 75.21 31.1671 75.494 31.1671 75.862C31.1671 76.262 30.9291 76.618 30.4531 76.93ZM34.6737 79.258H33.8337L32.5377 77.872V79.258H31.8957V74.482H32.5377V77.026L33.6957 75.934H34.5237L32.9397 77.428L34.6737 79.258ZM36.3023 76.528C35.7943 76.528 35.5403 76.882 35.5403 77.59C35.5403 78.246 35.7863 78.574 36.2783 78.574C36.5423 78.574 36.7423 78.482 36.8783 78.298C37.0023 78.126 37.0643 77.89 37.0643 77.59C37.0643 77.214 37.0023 76.944 36.8783 76.78C36.7583 76.612 36.5663 76.528 36.3023 76.528ZM37.6703 76.018V78.586C37.6703 79.622 37.1663 80.14 36.1583 80.14C35.7863 80.14 35.4483 80.08 35.1443 79.96L35.1983 79.348C35.4943 79.496 35.8163 79.57 36.1643 79.57C36.7363 79.57 37.0323 79.318 37.0523 78.814L37.0583 78.784C36.8823 79.032 36.6223 79.156 36.2783 79.156C35.8103 79.156 35.4523 78.984 35.2043 78.64C34.9963 78.356 34.8923 78 34.8923 77.572C34.8923 77.064 35.0023 76.67 35.2223 76.39C35.4583 76.094 35.7983 75.946 36.2423 75.946C36.6063 75.946 36.8803 76.038 37.0643 76.222V76.018H37.6703Z" fill="#959595"/>
<path d="M86.442 61.1982L47 43.875V92.875H165V61.1982L127.514 56.2487L86.442 61.1982Z" fill="url(#paint0_linear_618_1028)"/>
<path d="M47 43.875L86.442 61.875L127.514 56.7321L165 61.875" stroke="#023E8C" stroke-width="0.5"/>
<circle cx="47" cy="44" r="1.75" fill="#2065C0" stroke="#023E8C" stroke-width="0.5"/>
<circle cx="88" cy="62" r="1.75" fill="#2065C0" stroke="#023E8C" stroke-width="0.5"/>
<circle cx="128" cy="57" r="1.75" fill="#2065C0" stroke="#023E8C" stroke-width="0.5"/>
<circle cx="165" cy="62" r="1.75" fill="#2065C0" stroke="#023E8C" stroke-width="0.5"/>
<path d="M224.992 65.2065C221.344 67.7651 212.416 67.5151 210.93 67.3699C209.443 67.2247 208.622 67.0402 207.144 66.829C205.665 66.6178 204.98 66.2882 203.358 66.2882C201.735 66.2882 200.518 63.5616 201.194 62.5024C201.735 60.8798 205.384 60.8798 206.062 63.5841C207.054 61.6008 204.98 59.2573 202.276 59.7224C199.572 60.1875 196.192 61.714 197.949 68.4516C196.22 72.0731 197.409 76.5643 196.868 78.1869C196.327 79.8094 195.433 80.4366 194.163 81.9728C192.894 83.509 192.796 88.5024 193.081 90.0855C193.366 91.6686 194.73 91.1637 195.786 91.1672C196.842 91.1706 197.138 90.0855 196.868 89.5446C196.597 89.0038 195.606 89.061 195.245 87.9221C194.884 86.7832 196.135 83.3591 196.327 83.5953C196.766 84.1362 196.561 87.7209 197.408 89.0038C198.256 90.2867 199.452 90.1807 200.113 90.0855C200.774 89.9902 201.194 89.0036 200.653 88.4628C200.113 87.9221 199.836 88.7875 199.031 87.3812C198.225 85.975 199.871 83.5952 200.113 81.9728C200.355 80.3504 201.597 81.1888 202.817 79.2686C204.036 77.3483 203.358 77.6458 204.98 76.5642C206.603 75.4827 212.4 78.5382 214.715 78.7276C217.031 78.917 217.976 78.3817 220.124 79.2686C221.237 79.7283 220.941 81.9717 221.746 84.677C222.495 87.1908 224.992 91.1672 225.532 91.1672H228.237C228.777 91.1672 229.859 89.5446 228.777 89.0037C228.237 89.0037 228.32 89.1146 227.696 89.0037C227.072 88.8927 225.484 83.401 226.073 80.8911C226.663 78.3812 228.337 77.8668 229.318 75.4826C230.299 73.0984 229.965 70.1617 230.941 68.9925C231.917 67.8233 232.79 67.359 234.186 66.829C235.582 66.2991 236.978 67.0156 237.972 66.2882C238.966 65.5608 239.692 63.8839 239.053 63.0431C238.414 62.2023 237.431 63.0433 236.349 62.5022C235.268 61.9611 233.678 55.512 233.104 56.0121C232.53 56.5123 232.784 58.1754 232.022 58.1754C231.261 58.1754 231.462 57.1083 230.941 56.553C225.532 60.8797 228.639 62.6478 224.992 65.2065Z" fill="#2065C0"/>
<path d="M199.572 41.4093C197.492 42.3544 192 42.491 192 43.0319C192 43.5727 197.905 43.1065 199.572 44.1135C201.239 45.1205 202.276 47.8994 204.439 47.8994C206.603 47.8994 206.948 46.721 209.307 46.8177C211.666 46.9145 213.052 47.955 215.256 47.8994C217.461 47.8438 219.172 46.8662 220.665 46.8177C222.158 46.7693 222.963 47.4844 224.451 47.3586C225.939 47.2328 228.058 45.7851 229.318 46.2769C230.578 46.7686 230.941 49.5219 231.482 49.5219C232.023 49.5219 233.347 45.8733 234.727 45.1952C236.107 44.5171 239.054 44.1135 239.594 43.8013C240.135 43.4891 240.135 42.491 239.594 41.9501C239.054 41.4093 236.246 41.1798 234.727 40.3276C233.208 39.4755 232.18 35.9375 231.482 36.0009C230.784 36.0643 230.913 39.3631 229.318 39.7868C227.724 40.2105 226.059 38.6926 224.451 38.7051C222.842 38.7177 222.263 39.0639 220.665 39.246C219.067 39.428 217.408 38.2592 215.256 38.1643C213.104 38.0693 212.002 38.7051 209.848 38.7051C207.694 38.7051 206.557 37.772 204.439 38.1643C202.321 38.5565 201.652 40.4643 199.572 41.4093Z" fill="#2065C0"/>
<path d="M214.794 93.368H215.436V96.476H214.794V95.18H213.756V94.628H214.794V93.368ZM212.268 96.734H215.436V98.804H214.788V97.286H212.268V96.734ZM211.17 94.196V93.644H214.026V94.196H212.94V94.286C212.94 94.47 212.972 94.642 213.036 94.802C213.104 94.958 213.198 95.102 213.318 95.234C213.434 95.366 213.568 95.486 213.72 95.594C213.872 95.702 214.038 95.796 214.218 95.876L213.822 96.35C213.554 96.226 213.316 96.072 213.108 95.888C212.904 95.704 212.736 95.508 212.604 95.3C212.468 95.532 212.3 95.744 212.1 95.936C211.904 96.128 211.66 96.302 211.368 96.458L210.96 96.002C211.132 95.91 211.296 95.808 211.452 95.696C211.608 95.58 211.746 95.45 211.866 95.306C211.982 95.166 212.076 95.014 212.148 94.85C212.22 94.686 212.256 94.502 212.256 94.298V94.196H211.17ZM219.18 97.094C219.072 97.094 218.97 97.112 218.874 97.148C218.778 97.18 218.694 97.226 218.622 97.286C218.55 97.346 218.492 97.418 218.448 97.502C218.404 97.582 218.382 97.67 218.382 97.766C218.382 97.87 218.404 97.962 218.448 98.042C218.492 98.126 218.55 98.196 218.622 98.252C218.694 98.312 218.778 98.358 218.874 98.39C218.97 98.422 219.072 98.438 219.18 98.438C219.288 98.438 219.39 98.422 219.486 98.39C219.582 98.358 219.666 98.312 219.738 98.252C219.81 98.196 219.868 98.126 219.912 98.042C219.956 97.962 219.978 97.87 219.978 97.766C219.978 97.67 219.956 97.582 219.912 97.502C219.868 97.418 219.81 97.346 219.738 97.286C219.666 97.226 219.582 97.18 219.486 97.148C219.39 97.112 219.288 97.094 219.18 97.094ZM220.074 93.368H220.716V96.476H220.074V95.18H219.036V94.628H220.074V93.368ZM216.45 94.196V93.644H219.306V94.196H218.22V94.286C218.22 94.47 218.252 94.642 218.316 94.802C218.384 94.958 218.478 95.102 218.598 95.234C218.714 95.366 218.848 95.486 219 95.594C219.152 95.702 219.318 95.796 219.498 95.876L219.102 96.35C218.834 96.226 218.596 96.072 218.388 95.888C218.184 95.704 218.016 95.508 217.884 95.3C217.748 95.532 217.58 95.744 217.38 95.936C217.184 96.128 216.94 96.302 216.648 96.458L216.24 96.002C216.412 95.91 216.576 95.808 216.732 95.696C216.888 95.58 217.026 95.45 217.146 95.306C217.262 95.166 217.356 95.014 217.428 94.85C217.5 94.686 217.536 94.502 217.536 94.298V94.196H216.45ZM219.18 96.536C219.364 96.536 219.542 96.564 219.714 96.62C219.89 96.676 220.046 96.756 220.182 96.86C220.318 96.964 220.426 97.094 220.506 97.25C220.59 97.402 220.632 97.574 220.632 97.766C220.632 97.958 220.59 98.13 220.506 98.282C220.426 98.438 220.318 98.568 220.182 98.672C220.046 98.776 219.89 98.856 219.714 98.912C219.542 98.968 219.364 98.996 219.18 98.996C218.996 98.996 218.816 98.968 218.64 98.912C218.468 98.856 218.314 98.776 218.178 98.672C218.042 98.568 217.932 98.438 217.848 98.282C217.768 98.13 217.728 97.958 217.728 97.766C217.728 97.574 217.768 97.402 217.848 97.25C217.932 97.094 218.042 96.964 218.178 96.86C218.314 96.756 218.468 96.676 218.64 96.62C218.816 96.564 218.996 96.536 219.18 96.536ZM207.725 104.89C207.112 104.083 206.805 103.285 206.805 102.495C206.805 102.082 206.898 101.648 207.085 101.195C207.242 100.812 207.455 100.445 207.725 100.095H208.07C207.543 100.938 207.28 101.738 207.28 102.495C207.28 102.885 207.348 103.28 207.485 103.68C207.605 104.03 207.8 104.433 208.07 104.89H207.725ZM209.76 102.905V101.245L208.7 102.905H209.76ZM210.805 103.405H210.295V104.235H209.76V103.405H208.11V102.935L209.7 100.505H210.295V102.905H210.805V103.405ZM212.342 102.535H210.987V102.025H212.342V102.535ZM213.409 101.005L213.379 101.945C213.509 101.902 213.659 101.88 213.829 101.88C214.175 101.88 214.457 101.98 214.674 102.18C214.894 102.387 215.004 102.663 215.004 103.01C215.004 103.42 214.874 103.735 214.614 103.955C214.374 104.165 214.05 104.27 213.644 104.27C213.307 104.27 213.027 104.222 212.804 104.125V103.595C213.064 103.722 213.35 103.785 213.664 103.785C213.904 103.785 214.097 103.727 214.244 103.61C214.4 103.483 214.479 103.305 214.479 103.075C214.479 102.598 214.212 102.36 213.679 102.36C213.402 102.36 213.124 102.4 212.844 102.48L212.879 100.505H214.819V101.005H213.409ZM215.631 100.4H217.731V100.86H216.171V102.185C216.484 102.185 216.817 102.17 217.171 102.14C217.524 102.11 217.861 102.063 218.181 102L218.241 102.45C217.857 102.527 217.439 102.582 216.986 102.615C216.536 102.645 216.084 102.657 215.631 102.65V100.4ZM219.111 104.62H216.356V103.135H216.906V104.165H219.111V104.62ZM219.701 101.825H218.996V103.405H218.456V100.14H218.996V101.365H219.701V101.825ZM223.625 104.515H223.105V100.14H223.625V104.515ZM221.49 102.54V102.08H222.225V101.41H221.56C221.454 101.847 221.274 102.228 221.02 102.555C220.767 102.878 220.439 103.16 220.035 103.4L219.665 103C219.889 102.87 220.085 102.727 220.255 102.57C220.425 102.413 220.569 102.248 220.685 102.075C220.802 101.898 220.892 101.715 220.955 101.525C221.019 101.335 221.059 101.143 221.075 100.95H219.96V100.47H221.665C221.665 100.553 221.662 100.633 221.655 100.71C221.652 100.787 221.647 100.863 221.64 100.94H222.225V100.215H222.745V104.355H222.225V102.54H221.49ZM224.34 100.095C224.61 100.445 224.823 100.812 224.98 101.195C225.163 101.635 225.255 102.068 225.255 102.495C225.255 103.288 224.95 104.087 224.34 104.89H223.99C224.13 104.66 224.248 104.443 224.345 104.24C224.442 104.04 224.52 103.853 224.58 103.68C224.72 103.287 224.79 102.892 224.79 102.495C224.79 101.732 224.523 100.932 223.99 100.095H224.34Z" fill="black"/>
<path d="M90.724 68.696C90.724 68.88 90.712 69.056 90.688 69.224C90.672 69.384 90.644 69.54 90.604 69.692H91.636V67.856H90.64C90.664 67.992 90.684 68.132 90.7 68.276C90.716 68.412 90.724 68.552 90.724 68.696ZM86.74 68.696C86.74 69 86.776 69.276 86.848 69.524C86.92 69.764 87.016 69.972 87.136 70.148C87.256 70.324 87.396 70.46 87.556 70.556C87.724 70.652 87.904 70.7 88.096 70.7C88.464 70.7 88.78 70.516 89.044 70.148C89.316 69.78 89.452 69.296 89.452 68.696C89.452 68.096 89.316 67.612 89.044 67.244C88.78 66.876 88.464 66.692 88.096 66.692C87.904 66.692 87.724 66.74 87.556 66.836C87.396 66.932 87.256 67.068 87.136 67.244C87.016 67.42 86.92 67.632 86.848 67.88C86.776 68.128 86.74 68.4 86.74 68.696ZM94.996 75.236H93.748V64.736H94.996V75.236ZM92.884 74.852H91.636V70.784H90.112C90.08 70.824 90.052 70.864 90.028 70.904C90.004 70.936 89.976 70.968 89.944 71C89.712 71.288 89.436 71.512 89.116 71.672C88.796 71.824 88.456 71.9 88.096 71.9C87.728 71.9 87.384 71.824 87.064 71.672C86.744 71.512 86.468 71.288 86.236 71C85.996 70.72 85.808 70.388 85.672 70.004C85.536 69.612 85.468 69.176 85.468 68.696C85.468 68.232 85.536 67.804 85.672 67.412C85.808 67.02 85.996 66.684 86.236 66.404C86.468 66.116 86.744 65.892 87.064 65.732C87.384 65.572 87.728 65.492 88.096 65.492C88.456 65.492 88.796 65.572 89.116 65.732C89.436 65.892 89.712 66.116 89.944 66.404C89.984 66.46 90.024 66.516 90.064 66.572C90.104 66.62 90.144 66.676 90.184 66.74H91.636V64.916H92.884V74.852ZM102.279 72.644C102.007 72.476 101.739 72.28 101.475 72.056C101.211 71.832 100.967 71.588 100.743 71.324C100.511 71.068 100.303 70.8 100.119 70.52C99.9431 70.24 99.8071 69.964 99.7111 69.692C99.5991 69.98 99.4551 70.268 99.2791 70.556C99.1031 70.844 98.8991 71.12 98.6671 71.384C98.4431 71.648 98.1951 71.896 97.9231 72.128C97.6591 72.36 97.3791 72.568 97.0831 72.752L96.3031 71.768C96.6631 71.552 97.0031 71.288 97.3231 70.976C97.6511 70.664 97.9431 70.304 98.1991 69.896C98.4471 69.488 98.6471 69.052 98.7991 68.588C98.9511 68.116 99.0271 67.604 99.0271 67.052V65.312H100.359V67.028C100.359 67.556 100.427 68.048 100.563 68.504C100.707 68.96 100.899 69.384 101.139 69.776C101.387 70.168 101.671 70.52 101.991 70.832C102.319 71.144 102.667 71.408 103.035 71.624L102.279 72.644ZM104.175 64.736H105.471V75.236H104.175V64.736ZM118.097 64.736H119.393V75.236H118.097V64.736ZM111.905 68.456C111.905 68.736 111.945 68.988 112.025 69.212C112.113 69.428 112.229 69.616 112.373 69.776C112.525 69.936 112.701 70.06 112.901 70.148C113.101 70.228 113.321 70.268 113.561 70.268C113.785 70.268 113.997 70.228 114.197 70.148C114.405 70.06 114.581 69.936 114.725 69.776C114.877 69.616 114.997 69.428 115.085 69.212C115.173 68.988 115.217 68.736 115.217 68.456C115.217 68.184 115.173 67.936 115.085 67.712C114.997 67.488 114.877 67.296 114.725 67.136C114.581 66.976 114.405 66.856 114.197 66.776C113.997 66.688 113.785 66.644 113.561 66.644C113.321 66.644 113.101 66.688 112.901 66.776C112.701 66.856 112.525 66.976 112.373 67.136C112.229 67.296 112.113 67.488 112.025 67.712C111.945 67.936 111.905 68.184 111.905 68.456ZM110.597 68.456C110.597 68.024 110.673 67.628 110.825 67.268C110.977 66.908 111.189 66.596 111.461 66.332C111.733 66.068 112.049 65.864 112.409 65.72C112.769 65.568 113.153 65.492 113.561 65.492C113.969 65.492 114.349 65.568 114.701 65.72C115.061 65.864 115.377 66.068 115.649 66.332C115.921 66.596 116.133 66.908 116.285 67.268C116.445 67.628 116.525 68.024 116.525 68.456C116.525 68.888 116.445 69.288 116.285 69.656C116.133 70.016 115.921 70.328 115.649 70.592C115.377 70.856 115.061 71.06 114.701 71.204C114.349 71.348 113.969 71.42 113.561 71.42C113.153 71.42 112.769 71.348 112.409 71.204C112.049 71.06 111.733 70.856 111.461 70.592C111.189 70.328 110.977 70.016 110.825 69.656C110.673 69.288 110.597 68.888 110.597 68.456ZM128.896 64.736H130.192V75.236H128.896V64.736ZM121.72 72.08V65.468H126.94V72.08H121.72ZM125.656 66.56H123.016V70.988H125.656V66.56ZM139.696 64.736H140.992V75.236H139.696V64.736ZM138.088 66.572H135.928V67.292C135.928 68.356 136.164 69.252 136.636 69.98C137.108 70.692 137.708 71.26 138.436 71.684L137.62 72.668C137.092 72.308 136.612 71.892 136.18 71.42C135.748 70.94 135.436 70.436 135.244 69.908C135.028 70.484 134.708 71.024 134.284 71.528C133.868 72.024 133.384 72.452 132.832 72.812L132.016 71.9C132.376 71.676 132.708 71.42 133.012 71.132C133.324 70.844 133.596 70.508 133.828 70.124C134.052 69.74 134.228 69.32 134.356 68.864C134.492 68.408 134.56 67.892 134.56 67.316V66.572H132.352V65.468H138.088V66.572ZM142.995 67.688C142.995 67.304 143.067 66.948 143.211 66.62C143.363 66.292 143.567 66.008 143.823 65.768C144.079 65.528 144.379 65.34 144.723 65.204C145.067 65.068 145.443 65 145.851 65C146.243 65 146.611 65.068 146.955 65.204C147.307 65.34 147.611 65.528 147.867 65.768C148.123 66.008 148.327 66.292 148.479 66.62C148.631 66.948 148.707 67.304 148.707 67.688C148.707 68.08 148.631 68.44 148.479 68.768C148.327 69.096 148.123 69.38 147.867 69.62C147.611 69.86 147.307 70.048 146.955 70.184C146.611 70.312 146.243 70.376 145.851 70.376C145.443 70.376 145.067 70.312 144.723 70.184C144.379 70.048 144.079 69.86 143.823 69.62C143.567 69.38 143.363 69.096 143.211 68.768C143.067 68.44 142.995 68.08 142.995 67.688ZM145.539 75.788V71.384H146.847V72.572H150.495V71.384H151.791V75.788H145.539ZM150.495 64.736H151.791V70.952H150.495V64.736ZM144.303 67.688C144.303 67.92 144.343 68.132 144.423 68.324C144.503 68.508 144.611 68.668 144.747 68.804C144.891 68.932 145.055 69.036 145.239 69.116C145.431 69.188 145.635 69.224 145.851 69.224C146.275 69.224 146.639 69.084 146.943 68.804C147.247 68.516 147.399 68.144 147.399 67.688C147.399 67.24 147.247 66.872 146.943 66.584C146.639 66.296 146.275 66.152 145.851 66.152C145.411 66.152 145.043 66.296 144.747 66.584C144.451 66.872 144.303 67.24 144.303 67.688ZM150.495 74.696V73.652H146.847V74.696H150.495ZM160.298 71.744C159.914 71.824 159.474 71.892 158.978 71.948C158.482 71.996 157.978 72.036 157.466 72.068C156.938 72.108 156.394 72.136 155.834 72.152C155.274 72.16 154.742 72.156 154.238 72.14V65.408H155.534V71.024C155.846 71.032 156.206 71.032 156.614 71.024C157.022 71.008 157.422 70.984 157.814 70.952C158.222 70.92 158.626 70.88 159.026 70.832C159.434 70.784 159.806 70.724 160.142 70.652L160.298 71.744ZM161.294 64.736H162.59V75.236H161.294V64.736ZM172.981 64.736V68.132H174.757V69.236H172.981V75.236H171.685V64.736H172.981ZM165.037 65.468H170.089V66.572H166.333V70.964C167.069 70.964 167.849 70.936 168.673 70.88C169.505 70.816 170.293 70.716 171.037 70.58L171.181 71.66C170.309 71.82 169.337 71.936 168.265 72.008C167.201 72.08 166.125 72.104 165.037 72.08V65.468ZM177.144 75.32H175.656V73.892H177.144V75.32Z" fill="#838383" fill-opacity="0.5"/>
<defs>
<filter id="filter0_d_618_1028" x="0" y="24" width="262" height="92" filterUnits="userSpaceOnUse" color-interpolation-filters="sRGB">
<feFlood flood-opacity="0" result="BackgroundImageFix"/>
<feColorMatrix in="SourceAlpha" type="matrix" values="0 0 0 0 0 0 0 0 0 0 0 0 0 0 0 0 0 0 127 0" result="hardAlpha"/>
<feOffset/>
<feGaussianBlur stdDeviation="0.5"/>
<feComposite in2="hardAlpha" operator="out"/>
<feColorMatrix type="matrix" values="0 0 0 0 0 0 0 0 0 0 0 0 0 0 0 0 0 0 0.25 0"/>
<feBlend mode="normal" in2="BackgroundImageFix" result="effect1_dropShadow_618_1028"/>
<feBlend mode="normal" in="SourceGraphic" in2="effect1_dropShadow_618_1028" result="shape"/>
</filter>
<linearGradient id="paint0_linear_618_1028" x1="106" y1="43.875" x2="106" y2="92.875" gradientUnits="userSpaceOnUse">
<stop stop-color="#2065C0"/>
<stop offset="1" stop-color="white" stop-opacity="0"/>
</linearGradient>
</defs>
</svg>
