<svg width="82" height="90" viewBox="0 0 82 90" fill="none" xmlns="http://www.w3.org/2000/svg">
<g filter="url(#filter0_d_644_746)">
<g clip-path="url(#clip0_644_746)">
<g filter="url(#filter1_d_644_746)">
<circle cx="52" cy="64" r="23" fill="white"/>
</g>
<path d="M29 69H75C75 79.4934 66.4934 88 56 88H48C37.5066 88 29 79.4934 29 69Z" fill="#023E8C"/>
<path d="M51.8989 50.5C62.4976 50.5 71.1138 58.8811 71.3813 69.3115H32.4175C32.685 58.8812 41.3004 50.5002 51.8989 50.5Z" fill="white" stroke="#023E8C"/>
<path d="M35.3262 64.566C38.3477 64.5662 40.6514 66.6288 40.6514 69.0074C40.6513 69.6073 40.5099 70.0263 40.2891 70.3317C40.0663 70.6396 39.7305 70.8771 39.2666 71.0553C38.3121 71.4217 36.9474 71.4908 35.3262 71.4908C33.7048 71.4908 32.3403 71.4217 31.3857 71.0553C30.9217 70.8772 30.5861 70.6397 30.3633 70.3317C30.1424 70.0263 30 69.6074 30 69.0074C30 66.6287 32.3044 64.566 35.3262 64.566Z" fill="white" stroke="#023E8C"/>
<path d="M68.6738 64.566C65.6523 64.5662 63.3486 66.6288 63.3486 69.0074C63.3487 69.6073 63.4901 70.0263 63.7109 70.3317C63.9337 70.6396 64.2695 70.8771 64.7334 71.0553C65.6879 71.4217 67.0526 71.4908 68.6738 71.4908C70.2952 71.4908 71.6597 71.4217 72.6143 71.0553C73.0783 70.8772 73.4139 70.6397 73.6367 70.3317C73.8576 70.0263 74 69.6074 74 69.0074C74 66.6287 71.6956 64.566 68.6738 64.566Z" fill="white" stroke="#023E8C"/>
<path d="M45.9615 61.8892C45.9615 62.7706 45.247 62.7869 44.3655 62.7869C43.4841 62.7869 42.7695 62.7706 42.7695 61.8892C42.7695 61.0078 43.4841 60.2932 44.3655 60.2932C45.247 60.2932 45.9615 61.0078 45.9615 61.8892Z" fill="#023E8C"/>
<path d="M61.0284 61.8892C61.0284 62.7706 60.3138 62.7869 59.4324 62.7869C58.551 62.7869 57.8364 62.7706 57.8364 61.8892C57.8364 61.0078 58.551 60.2932 59.4324 60.2932C60.3138 60.2932 61.0284 61.0078 61.0284 61.8892Z" fill="#023E8C"/>
<path d="M39.1458 53.1262C39.9467 52.6316 40.792 52.2542 41.4779 52.0991C41.8225 52.0212 42.0945 52.0061 42.2875 52.0387C42.4709 52.0696 42.5461 52.1344 42.5845 52.1949C43.503 53.6412 43.0073 55.6443 41.3823 56.648C39.7572 57.6517 37.7135 57.2169 36.795 55.7706C36.7566 55.71 36.7302 55.6151 36.7821 55.4388C36.8367 55.2534 36.9692 55.0186 37.1906 54.7469C37.6316 54.2061 38.345 53.6208 39.1458 53.1262Z" fill="white" stroke="#023E8C"/>
<path d="M64.6535 53.1262C63.8526 52.6316 63.0073 52.2542 62.3214 52.0991C61.9769 52.0212 61.7048 52.0061 61.5119 52.0387C61.3284 52.0696 61.2533 52.1344 61.2148 52.1949C60.2964 53.6412 60.792 55.6443 62.417 56.648C64.0422 57.6517 66.0858 57.2169 67.0043 55.7706C67.0428 55.71 67.0691 55.6151 67.0172 55.4388C66.9626 55.2534 66.8301 55.0186 66.6087 54.7469C66.1677 54.2061 65.4543 53.6208 64.6535 53.1262Z" fill="white" stroke="#023E8C"/>
<path d="M54.5578 69.959C54.5578 71.6386 53.2176 73 51.5643 73C49.911 73 48.5708 71.6386 48.5708 69.959C48.5708 68.2794 50.7966 68.3752 51.5643 68.028C53.0224 68.491 54.5578 68.2794 54.5578 69.959Z" fill="#FFAEAE"/>
<path d="M55.9158 62.1291C55.9158 59.7625 53.9974 59.7187 51.6308 59.7187C49.2642 59.7187 47.3457 59.7625 47.3457 62.1291C47.3457 64.4956 49.2642 66.4141 51.6308 66.4141C53.9974 66.4141 55.9158 64.4956 55.9158 62.1291Z" fill="#023E8C"/>
<path d="M51.6311 65.868C51.7692 65.8681 51.8942 65.924 51.9846 66.0145C52.0296 66.0597 52.0668 66.1131 52.092 66.1727C52.1174 66.2326 52.1311 66.2989 52.1311 66.368C52.1313 67.4915 53.1957 68.5599 54.8254 68.869C56.4054 69.1686 58.375 68.6962 59.8723 66.8505C60.0463 66.6361 60.362 66.6033 60.5764 66.7772C60.7906 66.9512 60.8236 67.267 60.6497 67.4813C58.9109 69.6247 56.5647 70.2166 54.6389 69.8514C53.3925 69.615 52.254 68.9498 51.6301 68.0018C51.0062 68.9496 49.8685 69.615 48.6223 69.8514C46.6965 70.2165 44.3503 69.6247 42.6116 67.4813C42.4377 67.267 42.4707 66.9512 42.6848 66.7772C42.8992 66.6033 43.2149 66.6361 43.3889 66.8505C44.8862 68.6962 46.8558 69.1685 48.4358 68.869C50.0656 68.5599 51.13 67.4915 51.1301 66.368C51.1301 66.2988 51.1447 66.2327 51.1702 66.1727C51.1885 66.1295 51.2143 66.0906 51.2434 66.0546C51.3351 65.9414 51.4742 65.8681 51.6311 65.868Z" fill="#023E8C"/>
</g>
</g>
<path d="M0 8C0 3.58172 3.58172 0 8 0H74C78.4183 0 82 3.58172 82 8V26C82 30.4183 78.4183 34 74 34H54.5L51.5 38.5L48.5 34H8C3.58172 34 0 30.4183 0 26V8Z" fill="#023E8C"/>
<path d="M12.0014 13.48C11.8214 13.48 11.648 13.5067 11.4814 13.56C11.3214 13.6133 11.178 13.69 11.0514 13.79C10.9247 13.8833 10.8247 13.9967 10.7514 14.13C10.678 14.2633 10.6414 14.41 10.6414 14.57C10.6414 14.7367 10.678 14.8867 10.7514 15.02C10.8247 15.1533 10.9247 15.2667 11.0514 15.36C11.178 15.46 11.3214 15.5333 11.4814 15.58C11.648 15.6333 11.8214 15.66 12.0014 15.66C12.1814 15.66 12.3514 15.6333 12.5114 15.58C12.678 15.5333 12.8247 15.46 12.9514 15.36C13.078 15.2667 13.178 15.1533 13.2514 15.02C13.3247 14.8867 13.3614 14.7367 13.3614 14.57C13.3614 14.41 13.3247 14.2633 13.2514 14.13C13.178 13.9967 13.078 13.8833 12.9514 13.79C12.8247 13.69 12.678 13.6133 12.5114 13.56C12.3514 13.5067 12.1814 13.48 12.0014 13.48ZM7.81137 11.67V10.77H13.4414C13.5347 10.39 13.6047 9.99333 13.6514 9.58C13.698 9.16667 13.7247 8.81 13.7314 8.51H9.07137V7.59H14.8514C14.8514 8.18333 14.8214 8.75 14.7614 9.29C14.708 9.83 14.6314 10.3233 14.5314 10.77H16.2014V11.67H12.5614V12.61C12.8147 12.6567 13.0547 12.7367 13.2814 12.85C13.508 12.9567 13.708 13.0933 13.8814 13.26C14.0547 13.4267 14.1914 13.62 14.2914 13.84C14.3914 14.06 14.4414 14.3033 14.4414 14.57C14.4414 14.89 14.3714 15.1733 14.2314 15.42C14.098 15.6667 13.9147 15.8767 13.6814 16.05C13.4547 16.2233 13.1947 16.3533 12.9014 16.44C12.608 16.5333 12.308 16.58 12.0014 16.58C11.688 16.58 11.3847 16.5333 11.0914 16.44C10.8047 16.3533 10.5447 16.2233 10.3114 16.05C10.0847 15.8767 9.90137 15.6667 9.76137 15.42C9.62803 15.1733 9.56137 14.89 9.56137 14.57C9.56137 14.3033 9.61137 14.06 9.71137 13.84C9.81803 13.6133 9.95803 13.4167 10.1314 13.25C10.3047 13.0833 10.5047 12.9467 10.7314 12.84C10.9647 12.7333 11.2114 12.6567 11.4714 12.61V11.67H7.81137ZM22.9206 13.91H19.4806V15.36H22.9206V13.91ZM17.0006 11.8V10.9H22.6206C22.6606 10.7333 22.6973 10.5433 22.7306 10.33C22.7706 10.1167 22.8039 9.90333 22.8306 9.69C22.8573 9.47 22.8773 9.25667 22.8906 9.05C22.9106 8.84333 22.9239 8.66333 22.9306 8.51H18.2706V7.59H24.0506C24.0506 8.18333 24.0206 8.77 23.9606 9.35C23.9006 9.92333 23.8239 10.44 23.7306 10.9H25.4006V11.8H17.0006ZM18.4006 16.27V13H23.9906V16.27H18.4006ZM26.4598 9.59V8.7H31.6598V9.59H26.4598ZM27.5198 8.24V7.33H30.5898V8.24H27.5198ZM30.0098 11.57C30.0098 11.45 29.9831 11.34 29.9298 11.24C29.8831 11.14 29.8165 11.0533 29.7298 10.98C29.6431 10.9 29.5398 10.84 29.4198 10.8C29.3065 10.7533 29.1865 10.73 29.0598 10.73C28.9265 10.73 28.8031 10.7533 28.6898 10.8C28.5765 10.84 28.4765 10.9 28.3898 10.98C28.3031 11.0533 28.2331 11.14 28.1798 11.24C28.1331 11.34 28.1098 11.45 28.1098 11.57C28.1098 11.69 28.1331 11.8 28.1798 11.9C28.2331 12 28.3031 12.09 28.3898 12.17C28.4765 12.2433 28.5765 12.3033 28.6898 12.35C28.8031 12.39 28.9265 12.41 29.0598 12.41C29.1865 12.41 29.3065 12.39 29.4198 12.35C29.5398 12.3033 29.6431 12.2433 29.7298 12.17C29.8165 12.09 29.8831 12 29.9298 11.9C29.9831 11.8 30.0098 11.69 30.0098 11.57ZM30.9998 11.57C30.9998 11.81 30.9498 12.0333 30.8498 12.24C30.7498 12.4467 30.6131 12.6267 30.4398 12.78C30.2665 12.9333 30.0598 13.0533 29.8198 13.14C29.5865 13.2267 29.3331 13.27 29.0598 13.27C28.7865 13.27 28.5298 13.2267 28.2898 13.14C28.0565 13.0533 27.8531 12.9333 27.6798 12.78C27.5065 12.6267 27.3698 12.4467 27.2698 12.24C27.1698 12.0333 27.1198 11.81 27.1198 11.57C27.1198 11.33 27.1698 11.1067 27.2698 10.9C27.3698 10.6933 27.5065 10.5133 27.6798 10.36C27.8531 10.2067 28.0565 10.0867 28.2898 10C28.5298 9.91333 28.7865 9.87 29.0598 9.87C29.3331 9.87 29.5865 9.91333 29.8198 10C30.0598 10.0867 30.2665 10.2067 30.4398 10.36C30.6131 10.5133 30.7498 10.6933 30.8498 10.9C30.9498 11.1067 30.9998 11.33 30.9998 11.57ZM33.8198 16.54H28.3098V13.97H29.4098V15.62H33.8198V16.54ZM34.9998 11.25H33.5898V14.23H32.5098V7.28H33.5898V10.33H34.9998V11.25ZM43.259 16.24H37.709V13.17H38.809V15.33H43.259V16.24ZM41.979 7.28H43.059V13.81H41.979V10.49H39.889V9.81C39.789 10.05 39.669 10.2767 39.529 10.49C39.3957 10.7033 39.2457 10.9033 39.079 11.09C38.699 11.51 38.2624 11.8733 37.769 12.18C37.2757 12.4867 36.7457 12.7433 36.179 12.95L35.569 12.08C36.5224 11.74 37.299 11.3067 37.899 10.78C38.499 10.2467 38.889 9.58667 39.069 8.8H36.059V7.84H40.269C40.269 8.47333 40.1724 9.05 39.979 9.57H41.979V7.28ZM48.821 9.94C48.821 10.14 48.8543 10.3233 48.921 10.49C48.9876 10.6567 49.0776 10.8033 49.191 10.93C49.311 11.05 49.4476 11.1433 49.601 11.21C49.761 11.2767 49.931 11.31 50.111 11.31C50.4643 11.31 50.7676 11.1833 51.021 10.93C51.2743 10.6633 51.401 10.3333 51.401 9.94C51.401 9.54 51.2743 9.21333 51.021 8.96C50.7676 8.7 50.4643 8.57 50.111 8.57C49.931 8.57 49.761 8.60333 49.601 8.67C49.4476 8.73667 49.311 8.83333 49.191 8.96C49.0776 9.08 48.9876 9.22333 48.921 9.39C48.8543 9.55667 48.821 9.74 48.821 9.94ZM55.261 16.24H49.711V13.17H50.811V15.33H55.261V16.24ZM53.981 7.28H55.061V13.78H53.981V10.29H52.461C52.4276 10.5567 52.351 10.8 52.231 11.02C52.111 11.24 51.9643 11.4367 51.791 11.61C51.5776 11.8167 51.3243 11.98 51.031 12.1C50.7443 12.2133 50.4376 12.27 50.111 12.27C49.771 12.27 49.4576 12.2133 49.171 12.1C48.8843 11.98 48.6343 11.8167 48.421 11.61C48.2076 11.4033 48.0376 11.16 47.911 10.88C47.791 10.5933 47.731 10.28 47.731 9.94C47.731 9.6 47.791 9.29 47.911 9.01C48.0376 8.73 48.2076 8.48667 48.421 8.28C48.6343 8.07333 48.8843 7.91 49.171 7.79C49.4576 7.67 49.771 7.61 50.111 7.61C50.4376 7.61 50.7443 7.67 51.031 7.79C51.3243 7.91 51.5776 8.07333 51.791 8.28C52.1043 8.58 52.3143 8.94333 52.421 9.37H53.981V7.28ZM64.5302 16.03H63.4902V7.28H64.5302V16.03ZM62.7202 15.71H61.6802V10.85H60.4102V9.91H61.6802V7.43H62.7202V15.71ZM60.8002 8.83H59.4002V9.41C59.4002 10.2567 59.5535 10.9867 59.8602 11.6C60.1669 12.2133 60.6002 12.73 61.1602 13.15L60.4002 13.85C60.0335 13.5833 59.7135 13.27 59.4402 12.91C59.1669 12.55 58.9635 12.1667 58.8302 11.76C58.6769 12.2067 58.4769 12.6133 58.2302 12.98C57.9835 13.3467 57.6702 13.69 57.2902 14.01L56.5202 13.35C57.0802 12.9033 57.5102 12.36 57.8102 11.72C58.1102 11.0733 58.2602 10.31 58.2602 9.43V8.83H56.8202V7.89H60.8002V8.83ZM73.0194 16.32H67.1394V13.78H68.2194V15.41H73.0194V16.32ZM65.7994 12.9V12H74.1994V12.9H65.7994ZM67.1994 11.14V7.67H72.7794V8.57H68.2694V10.24H72.9094V11.14H67.1994ZM25.4011 19.43H21.9611V20.47H25.4011V19.43ZM20.8811 21.38V18.52H26.4711V21.38H20.8811ZM20.8911 27.49V25.1H25.3911V24.5H20.8811V23.61H23.1411V22.92H19.4811V22.02H27.8811V22.92H24.2311V23.61H26.4711V25.96H21.9611V26.59H26.6911V27.49H20.8911ZM30.1003 21.38C30.1003 21.6133 30.1336 21.8233 30.2003 22.01C30.2736 22.19 30.3703 22.3467 30.4903 22.48C30.6169 22.6133 30.7636 22.7167 30.9303 22.79C31.0969 22.8567 31.2803 22.89 31.4803 22.89C31.6669 22.89 31.8436 22.8567 32.0103 22.79C32.1836 22.7167 32.3303 22.6133 32.4503 22.48C32.5769 22.3467 32.6769 22.19 32.7503 22.01C32.8236 21.8233 32.8603 21.6133 32.8603 21.38C32.8603 21.1533 32.8236 20.9467 32.7503 20.76C32.6769 20.5733 32.5769 20.4133 32.4503 20.28C32.3303 20.1467 32.1836 20.0467 32.0103 19.98C31.8436 19.9067 31.6669 19.87 31.4803 19.87C31.2803 19.87 31.0969 19.9067 30.9303 19.98C30.7636 20.0467 30.6169 20.1467 30.4903 20.28C30.3703 20.4133 30.2736 20.5733 30.2003 20.76C30.1336 20.9467 30.1003 21.1533 30.1003 21.38ZM36.4603 18.28V27.03H35.3803V21.8H33.9103C33.8703 22.0733 33.7903 22.3267 33.6703 22.56C33.5503 22.7867 33.4003 22.9867 33.2203 23.16C32.9936 23.38 32.7303 23.55 32.4303 23.67C32.1369 23.79 31.8203 23.85 31.4803 23.85C31.1403 23.85 30.8203 23.79 30.5203 23.67C30.2203 23.55 29.9569 23.38 29.7303 23.16C29.5036 22.94 29.3269 22.68 29.2003 22.38C29.0736 22.0733 29.0103 21.74 29.0103 21.38C29.0103 21.02 29.0736 20.69 29.2003 20.39C29.3269 20.09 29.5036 19.83 29.7303 19.61C29.9569 19.39 30.2203 19.22 30.5203 19.1C30.8203 18.9733 31.1403 18.91 31.4803 18.91C31.8203 18.91 32.1369 18.9733 32.4303 19.1C32.7303 19.22 32.9936 19.39 33.2203 19.61C33.3936 19.7833 33.5369 19.9767 33.6503 20.19C33.7703 20.3967 33.8536 20.6267 33.9003 20.88H35.3803V18.28H36.4603ZM41.8495 22.09V21.08H39.7495V22.09H41.8495ZM45.2995 18.28V21.61H46.6795V22.53H45.2995V27.03H44.2195V18.28H45.2995ZM37.8695 24.32C38.2095 24.32 38.5828 24.3133 38.9895 24.3C39.4028 24.2867 39.8262 24.2733 40.2595 24.26V23H38.6695V18.91H39.7495V20.16H41.8495V18.91H42.9195V23H41.3395V24.2C41.8395 24.1667 42.3095 24.1333 42.7495 24.1C43.1895 24.0667 43.5562 24.03 43.8495 23.99L43.9495 24.88C43.7828 24.9 43.5928 24.9233 43.3795 24.95C43.1662 24.97 42.9362 24.99 42.6895 25.01C42.4495 25.03 42.1962 25.05 41.9295 25.07C41.6628 25.0833 41.3962 25.1 41.1295 25.12C40.8562 25.14 40.5795 25.1567 40.2995 25.17C40.0195 25.1833 39.7428 25.1967 39.4695 25.21C39.1962 25.2167 38.9295 25.2233 38.6695 25.23C38.4095 25.2367 38.1662 25.24 37.9395 25.24L37.8695 24.32ZM54.9814 24.49C54.8014 24.49 54.6314 24.52 54.4714 24.58C54.3114 24.6333 54.1714 24.71 54.0514 24.81C53.9314 24.91 53.8348 25.03 53.7614 25.17C53.6881 25.3033 53.6514 25.45 53.6514 25.61C53.6514 25.7833 53.6881 25.9367 53.7614 26.07C53.8348 26.21 53.9314 26.3267 54.0514 26.42C54.1714 26.52 54.3114 26.5967 54.4714 26.65C54.6314 26.7033 54.8014 26.73 54.9814 26.73C55.1614 26.73 55.3314 26.7033 55.4914 26.65C55.6514 26.5967 55.7914 26.52 55.9114 26.42C56.0314 26.3267 56.1281 26.21 56.2014 26.07C56.2748 25.9367 56.3114 25.7833 56.3114 25.61C56.3114 25.45 56.2748 25.3033 56.2014 25.17C56.1281 25.03 56.0314 24.91 55.9114 24.81C55.7914 24.71 55.6514 24.6333 55.4914 24.58C55.3314 24.52 55.1614 24.49 54.9814 24.49ZM53.6714 19.61H51.5214V21.99H53.6714V19.61ZM54.9814 23.56C55.2881 23.56 55.5848 23.6067 55.8714 23.7C56.1648 23.7933 56.4248 23.9267 56.6514 24.1C56.8781 24.2733 57.0581 24.49 57.1914 24.75C57.3314 25.0033 57.4014 25.29 57.4014 25.61C57.4014 25.93 57.3314 26.2167 57.1914 26.47C57.0581 26.73 56.8781 26.9467 56.6514 27.12C56.4248 27.2933 56.1648 27.4267 55.8714 27.52C55.5848 27.6133 55.2881 27.66 54.9814 27.66C54.6748 27.66 54.3748 27.6133 54.0814 27.52C53.7948 27.4267 53.5381 27.2933 53.3114 27.12C53.0848 26.9467 52.9014 26.73 52.7614 26.47C52.6281 26.2167 52.5614 25.93 52.5614 25.61C52.5614 25.29 52.6281 25.0033 52.7614 24.75C52.9014 24.49 53.0848 24.2733 53.3114 24.1C53.5381 23.9267 53.7948 23.7933 54.0814 23.7C54.3748 23.6067 54.6748 23.56 54.9814 23.56ZM56.4614 18.28H57.5414V23.46H56.4614V21.14H54.7414V22.9H50.4414V18.7H54.7414V20.22H56.4614V18.28ZM61.4307 26.46H60.2907V25.36H61.4307V26.46ZM61.4207 18.91L61.3007 24.72H60.4207L60.2807 18.91H61.4207Z" fill="white"/>
<defs>
<filter id="filter0_d_644_746" x="26" y="38" width="52" height="52" filterUnits="userSpaceOnUse" color-interpolation-filters="sRGB">
<feFlood flood-opacity="0" result="BackgroundImageFix"/>
<feColorMatrix in="SourceAlpha" type="matrix" values="0 0 0 0 0 0 0 0 0 0 0 0 0 0 0 0 0 0 127 0" result="hardAlpha"/>
<feOffset/>
<feGaussianBlur stdDeviation="1.5"/>
<feComposite in2="hardAlpha" operator="out"/>
<feColorMatrix type="matrix" values="0 0 0 0 0 0 0 0 0 0 0 0 0 0 0 0 0 0 0.5 0"/>
<feBlend mode="normal" in2="BackgroundImageFix" result="effect1_dropShadow_644_746"/>
<feBlend mode="normal" in="SourceGraphic" in2="effect1_dropShadow_644_746" result="shape"/>
</filter>
<filter id="filter1_d_644_746" x="26" y="38" width="54" height="54" filterUnits="userSpaceOnUse" color-interpolation-filters="sRGB">
<feFlood flood-opacity="0" result="BackgroundImageFix"/>
<feColorMatrix in="SourceAlpha" type="matrix" values="0 0 0 0 0 0 0 0 0 0 0 0 0 0 0 0 0 0 127 0" result="hardAlpha"/>
<feOffset dx="1" dy="1"/>
<feGaussianBlur stdDeviation="2"/>
<feComposite in2="hardAlpha" operator="out"/>
<feColorMatrix type="matrix" values="0 0 0 0 0 0 0 0 0 0 0 0 0 0 0 0 0 0 0.25 0"/>
<feBlend mode="normal" in2="BackgroundImageFix" result="effect1_dropShadow_644_746"/>
<feBlend mode="normal" in="SourceGraphic" in2="effect1_dropShadow_644_746" result="shape"/>
</filter>
<clipPath id="clip0_644_746">
<rect x="29" y="41" width="46" height="46" rx="23" fill="white"/>
</clipPath>
</defs>
</svg>
