<svg width="82" height="90" viewBox="0 0 82 90" fill="none" xmlns="http://www.w3.org/2000/svg">
<g filter="url(#filter0_d_644_745)">
<g clip-path="url(#clip0_644_745)">
<g filter="url(#filter1_d_644_745)">
<circle cx="52" cy="64" r="23" fill="white"/>
</g>
<path d="M29 69H75C75 79.4934 66.4934 88 56 88H48C37.5066 88 29 79.4934 29 69Z" fill="#023E8C"/>
<path d="M51.8999 50.5C55.5961 50.5001 59.0506 51.5345 61.9946 53.3301L62.3335 53.5361L62.6118 53.2529C62.8974 52.9627 63.4256 52.6975 64.1353 52.4756C64.8294 52.2585 65.6331 52.1018 66.4048 51.9902C67.174 51.879 67.8994 51.8142 68.4331 51.7773C68.573 51.7677 68.6996 51.762 68.8101 51.7559C68.8127 51.8264 68.8175 51.9034 68.8198 51.9863C68.8326 52.4331 68.8382 53.0454 68.811 53.709C68.7838 54.3742 68.7236 55.0819 68.6069 55.7217C68.4885 56.371 68.3194 56.906 68.0991 57.2578C68.0568 57.3254 67.9688 57.3991 67.7466 57.4258L66.8813 57.5303L67.4077 58.2246C69.8112 61.3938 71.2749 65.3212 71.3813 69.5889H32.4175C32.5264 65.2225 34.0557 61.2123 36.5591 58.0059L37.1489 57.25L36.1919 57.1982C35.9089 57.1831 35.8035 57.097 35.7573 57.0234C35.5335 56.666 35.3523 56.125 35.2153 55.4736C35.0804 54.8315 34.9966 54.1222 34.9448 53.4561C34.8932 52.7915 34.8742 52.1787 34.8687 51.7314C34.8677 51.6585 34.868 51.5898 34.8677 51.5264C34.988 51.5341 35.1264 51.5428 35.2798 51.5547C35.8495 51.5989 36.6221 51.6734 37.436 51.7969C38.2525 51.9207 39.0971 52.0918 39.8169 52.3232C40.5563 52.561 41.0845 52.8386 41.3472 53.1309L41.6216 53.4375L41.9751 53.2266C44.6999 51.6028 47.8519 50.6274 51.2222 50.5117L51.8999 50.5Z" fill="white" stroke="#023E8C"/>
<path d="M35.3262 64.7634C38.3408 64.7635 40.6514 66.8512 40.6514 69.2741C40.6513 69.885 40.5092 70.3124 40.2871 70.6237C40.0635 70.9372 39.7269 71.1778 39.2637 71.3581C38.3102 71.7292 36.9474 71.7995 35.3262 71.7995C33.7047 71.7995 32.3412 71.7293 31.3877 71.3581C30.9246 71.1778 30.5888 70.9371 30.3652 70.6237C30.1432 70.3124 30 69.885 30 69.2741C30 66.8511 32.3114 64.7634 35.3262 64.7634Z" fill="white" stroke="#023E8C"/>
<path d="M68.6738 64.7634C65.6592 64.7635 63.3486 66.8512 63.3486 69.2741C63.3487 69.885 63.4908 70.3124 63.7129 70.6237C63.9365 70.9372 64.2731 71.1778 64.7363 71.3581C65.6898 71.7292 67.0526 71.7995 68.6738 71.7995C70.2953 71.7995 71.6588 71.7293 72.6123 71.3581C73.0754 71.1778 73.4112 70.9371 73.6348 70.6237C73.8568 70.3124 74 69.885 74 69.2741C74 66.8511 71.6886 64.7634 68.6738 64.7634Z" fill="white" stroke="#023E8C"/>
<path d="M45.8859 62.3474C45.7318 63.2215 45.0203 63.1127 44.1462 62.9586C43.2721 62.8044 42.4647 61.9062 42.6188 61.0321C42.7729 60.158 43.7081 60.3314 44.5822 60.4855C45.4564 60.6397 46.04 61.4732 45.8859 62.3474Z" fill="#023E8C"/>
<path d="M58.1068 62.4637C58.2609 63.3379 58.9724 63.2291 59.8465 63.075C60.7206 62.9208 61.528 62.0226 61.3739 61.1485C61.2197 60.2744 60.2845 60.4478 59.4104 60.6019C58.5363 60.7561 57.9526 61.5896 58.1068 62.4637Z" fill="#023E8C"/>
<path d="M53.6074 63.9621C53.6074 63.0745 52.8878 63.0581 52.0002 63.0581C51.1126 63.0581 50.3931 63.0745 50.3931 63.9621C50.3931 64.8497 51.1126 65.5692 52.0002 65.5692C52.8878 65.5692 53.6074 64.8497 53.6074 63.9621Z" fill="#023E8C"/>
<path d="M51.9999 65.5692C51.9999 66.6741 49.991 67.3772 48.7856 65.8706" stroke="#023E8C" stroke-linecap="round"/>
<path d="M52.0001 65.5692C52.0001 66.6741 54.009 67.3772 55.2144 65.8706" stroke="#023E8C" stroke-linecap="round"/>
</g>
</g>
<path d="M0 8C0 3.58172 3.58172 0 8 0H74C78.4183 0 82 3.58172 82 8V26C82 30.4183 78.4183 34 74 34H54.5L51.5 38.5L48.5 34H8C3.58172 34 0 30.4183 0 26V8Z" fill="#023E8C"/>
<path d="M12.0014 13.48C11.8214 13.48 11.648 13.5067 11.4814 13.56C11.3214 13.6133 11.178 13.69 11.0514 13.79C10.9247 13.8833 10.8247 13.9967 10.7514 14.13C10.678 14.2633 10.6414 14.41 10.6414 14.57C10.6414 14.7367 10.678 14.8867 10.7514 15.02C10.8247 15.1533 10.9247 15.2667 11.0514 15.36C11.178 15.46 11.3214 15.5333 11.4814 15.58C11.648 15.6333 11.8214 15.66 12.0014 15.66C12.1814 15.66 12.3514 15.6333 12.5114 15.58C12.678 15.5333 12.8247 15.46 12.9514 15.36C13.078 15.2667 13.178 15.1533 13.2514 15.02C13.3247 14.8867 13.3614 14.7367 13.3614 14.57C13.3614 14.41 13.3247 14.2633 13.2514 14.13C13.178 13.9967 13.078 13.8833 12.9514 13.79C12.8247 13.69 12.678 13.6133 12.5114 13.56C12.3514 13.5067 12.1814 13.48 12.0014 13.48ZM7.81137 11.67V10.77H13.4414C13.5347 10.39 13.6047 9.99333 13.6514 9.58C13.698 9.16667 13.7247 8.81 13.7314 8.51H9.07137V7.59H14.8514C14.8514 8.18333 14.8214 8.75 14.7614 9.29C14.708 9.83 14.6314 10.3233 14.5314 10.77H16.2014V11.67H12.5614V12.61C12.8147 12.6567 13.0547 12.7367 13.2814 12.85C13.508 12.9567 13.708 13.0933 13.8814 13.26C14.0547 13.4267 14.1914 13.62 14.2914 13.84C14.3914 14.06 14.4414 14.3033 14.4414 14.57C14.4414 14.89 14.3714 15.1733 14.2314 15.42C14.098 15.6667 13.9147 15.8767 13.6814 16.05C13.4547 16.2233 13.1947 16.3533 12.9014 16.44C12.608 16.5333 12.308 16.58 12.0014 16.58C11.688 16.58 11.3847 16.5333 11.0914 16.44C10.8047 16.3533 10.5447 16.2233 10.3114 16.05C10.0847 15.8767 9.90137 15.6667 9.76137 15.42C9.62803 15.1733 9.56137 14.89 9.56137 14.57C9.56137 14.3033 9.61137 14.06 9.71137 13.84C9.81803 13.6133 9.95803 13.4167 10.1314 13.25C10.3047 13.0833 10.5047 12.9467 10.7314 12.84C10.9647 12.7333 11.2114 12.6567 11.4714 12.61V11.67H7.81137ZM22.9206 13.91H19.4806V15.36H22.9206V13.91ZM17.0006 11.8V10.9H22.6206C22.6606 10.7333 22.6973 10.5433 22.7306 10.33C22.7706 10.1167 22.8039 9.90333 22.8306 9.69C22.8573 9.47 22.8773 9.25667 22.8906 9.05C22.9106 8.84333 22.9239 8.66333 22.9306 8.51H18.2706V7.59H24.0506C24.0506 8.18333 24.0206 8.77 23.9606 9.35C23.9006 9.92333 23.8239 10.44 23.7306 10.9H25.4006V11.8H17.0006ZM18.4006 16.27V13H23.9906V16.27H18.4006ZM26.4598 9.59V8.7H31.6598V9.59H26.4598ZM27.5198 8.24V7.33H30.5898V8.24H27.5198ZM30.0098 11.57C30.0098 11.45 29.9831 11.34 29.9298 11.24C29.8831 11.14 29.8165 11.0533 29.7298 10.98C29.6431 10.9 29.5398 10.84 29.4198 10.8C29.3065 10.7533 29.1865 10.73 29.0598 10.73C28.9265 10.73 28.8031 10.7533 28.6898 10.8C28.5765 10.84 28.4765 10.9 28.3898 10.98C28.3031 11.0533 28.2331 11.14 28.1798 11.24C28.1331 11.34 28.1098 11.45 28.1098 11.57C28.1098 11.69 28.1331 11.8 28.1798 11.9C28.2331 12 28.3031 12.09 28.3898 12.17C28.4765 12.2433 28.5765 12.3033 28.6898 12.35C28.8031 12.39 28.9265 12.41 29.0598 12.41C29.1865 12.41 29.3065 12.39 29.4198 12.35C29.5398 12.3033 29.6431 12.2433 29.7298 12.17C29.8165 12.09 29.8831 12 29.9298 11.9C29.9831 11.8 30.0098 11.69 30.0098 11.57ZM30.9998 11.57C30.9998 11.81 30.9498 12.0333 30.8498 12.24C30.7498 12.4467 30.6131 12.6267 30.4398 12.78C30.2665 12.9333 30.0598 13.0533 29.8198 13.14C29.5865 13.2267 29.3331 13.27 29.0598 13.27C28.7865 13.27 28.5298 13.2267 28.2898 13.14C28.0565 13.0533 27.8531 12.9333 27.6798 12.78C27.5065 12.6267 27.3698 12.4467 27.2698 12.24C27.1698 12.0333 27.1198 11.81 27.1198 11.57C27.1198 11.33 27.1698 11.1067 27.2698 10.9C27.3698 10.6933 27.5065 10.5133 27.6798 10.36C27.8531 10.2067 28.0565 10.0867 28.2898 10C28.5298 9.91333 28.7865 9.87 29.0598 9.87C29.3331 9.87 29.5865 9.91333 29.8198 10C30.0598 10.0867 30.2665 10.2067 30.4398 10.36C30.6131 10.5133 30.7498 10.6933 30.8498 10.9C30.9498 11.1067 30.9998 11.33 30.9998 11.57ZM33.8198 16.54H28.3098V13.97H29.4098V15.62H33.8198V16.54ZM34.9998 11.25H33.5898V14.23H32.5098V7.28H33.5898V10.33H34.9998V11.25ZM43.259 16.24H37.709V13.17H38.809V15.33H43.259V16.24ZM41.979 7.28H43.059V13.81H41.979V10.49H39.889V9.81C39.789 10.05 39.669 10.2767 39.529 10.49C39.3957 10.7033 39.2457 10.9033 39.079 11.09C38.699 11.51 38.2624 11.8733 37.769 12.18C37.2757 12.4867 36.7457 12.7433 36.179 12.95L35.569 12.08C36.5224 11.74 37.299 11.3067 37.899 10.78C38.499 10.2467 38.889 9.58667 39.069 8.8H36.059V7.84H40.269C40.269 8.47333 40.1724 9.05 39.979 9.57H41.979V7.28ZM48.821 9.94C48.821 10.14 48.8543 10.3233 48.921 10.49C48.9876 10.6567 49.0776 10.8033 49.191 10.93C49.311 11.05 49.4476 11.1433 49.601 11.21C49.761 11.2767 49.931 11.31 50.111 11.31C50.4643 11.31 50.7676 11.1833 51.021 10.93C51.2743 10.6633 51.401 10.3333 51.401 9.94C51.401 9.54 51.2743 9.21333 51.021 8.96C50.7676 8.7 50.4643 8.57 50.111 8.57C49.931 8.57 49.761 8.60333 49.601 8.67C49.4476 8.73667 49.311 8.83333 49.191 8.96C49.0776 9.08 48.9876 9.22333 48.921 9.39C48.8543 9.55667 48.821 9.74 48.821 9.94ZM55.261 16.24H49.711V13.17H50.811V15.33H55.261V16.24ZM53.981 7.28H55.061V13.78H53.981V10.29H52.461C52.4276 10.5567 52.351 10.8 52.231 11.02C52.111 11.24 51.9643 11.4367 51.791 11.61C51.5776 11.8167 51.3243 11.98 51.031 12.1C50.7443 12.2133 50.4376 12.27 50.111 12.27C49.771 12.27 49.4576 12.2133 49.171 12.1C48.8843 11.98 48.6343 11.8167 48.421 11.61C48.2076 11.4033 48.0376 11.16 47.911 10.88C47.791 10.5933 47.731 10.28 47.731 9.94C47.731 9.6 47.791 9.29 47.911 9.01C48.0376 8.73 48.2076 8.48667 48.421 8.28C48.6343 8.07333 48.8843 7.91 49.171 7.79C49.4576 7.67 49.771 7.61 50.111 7.61C50.4376 7.61 50.7443 7.67 51.031 7.79C51.3243 7.91 51.5776 8.07333 51.791 8.28C52.1043 8.58 52.3143 8.94333 52.421 9.37H53.981V7.28ZM64.5302 16.03H63.4902V7.28H64.5302V16.03ZM62.7202 15.71H61.6802V10.85H60.4102V9.91H61.6802V7.43H62.7202V15.71ZM60.8002 8.83H59.4002V9.41C59.4002 10.2567 59.5535 10.9867 59.8602 11.6C60.1669 12.2133 60.6002 12.73 61.1602 13.15L60.4002 13.85C60.0335 13.5833 59.7135 13.27 59.4402 12.91C59.1669 12.55 58.9635 12.1667 58.8302 11.76C58.6769 12.2067 58.4769 12.6133 58.2302 12.98C57.9835 13.3467 57.6702 13.69 57.2902 14.01L56.5202 13.35C57.0802 12.9033 57.5102 12.36 57.8102 11.72C58.1102 11.0733 58.2602 10.31 58.2602 9.43V8.83H56.8202V7.89H60.8002V8.83ZM73.0194 16.32H67.1394V13.78H68.2194V15.41H73.0194V16.32ZM65.7994 12.9V12H74.1994V12.9H65.7994ZM67.1994 11.14V7.67H72.7794V8.57H68.2694V10.24H72.9094V11.14H67.1994ZM26.8024 19.43H23.3624V20.47H26.8024V19.43ZM22.2824 21.38V18.52H27.8724V21.38H22.2824ZM22.2924 27.49V25.1H26.7924V24.5H22.2824V23.61H24.5424V22.92H20.8824V22.02H29.2824V22.92H25.6324V23.61H27.8724V25.96H23.3624V26.59H28.0924V27.49H22.2924ZM31.5016 21.38C31.5016 21.6133 31.535 21.8233 31.6016 22.01C31.675 22.19 31.7716 22.3467 31.8916 22.48C32.0183 22.6133 32.165 22.7167 32.3316 22.79C32.4983 22.8567 32.6816 22.89 32.8816 22.89C33.0683 22.89 33.245 22.8567 33.4116 22.79C33.585 22.7167 33.7316 22.6133 33.8516 22.48C33.9783 22.3467 34.0783 22.19 34.1516 22.01C34.225 21.8233 34.2616 21.6133 34.2616 21.38C34.2616 21.1533 34.225 20.9467 34.1516 20.76C34.0783 20.5733 33.9783 20.4133 33.8516 20.28C33.7316 20.1467 33.585 20.0467 33.4116 19.98C33.245 19.9067 33.0683 19.87 32.8816 19.87C32.6816 19.87 32.4983 19.9067 32.3316 19.98C32.165 20.0467 32.0183 20.1467 31.8916 20.28C31.7716 20.4133 31.675 20.5733 31.6016 20.76C31.535 20.9467 31.5016 21.1533 31.5016 21.38ZM37.8616 18.28V27.03H36.7816V21.8H35.3116C35.2716 22.0733 35.1916 22.3267 35.0716 22.56C34.9516 22.7867 34.8016 22.9867 34.6216 23.16C34.395 23.38 34.1316 23.55 33.8316 23.67C33.5383 23.79 33.2216 23.85 32.8816 23.85C32.5416 23.85 32.2216 23.79 31.9216 23.67C31.6216 23.55 31.3583 23.38 31.1316 23.16C30.905 22.94 30.7283 22.68 30.6016 22.38C30.475 22.0733 30.4116 21.74 30.4116 21.38C30.4116 21.02 30.475 20.69 30.6016 20.39C30.7283 20.09 30.905 19.83 31.1316 19.61C31.3583 19.39 31.6216 19.22 31.9216 19.1C32.2216 18.9733 32.5416 18.91 32.8816 18.91C33.2216 18.91 33.5383 18.9733 33.8316 19.1C34.1316 19.22 34.395 19.39 34.6216 19.61C34.795 19.7833 34.9383 19.9767 35.0516 20.19C35.1716 20.3967 35.255 20.6267 35.3016 20.88H36.7816V18.28H37.8616ZM43.2509 22.09V21.08H41.1509V22.09H43.2509ZM46.7009 18.28V21.61H48.0809V22.53H46.7009V27.03H45.6209V18.28H46.7009ZM39.2709 24.32C39.6109 24.32 39.9842 24.3133 40.3909 24.3C40.8042 24.2867 41.2275 24.2733 41.6609 24.26V23H40.0709V18.91H41.1509V20.16H43.2509V18.91H44.3209V23H42.7409V24.2C43.2409 24.1667 43.7109 24.1333 44.1509 24.1C44.5909 24.0667 44.9575 24.03 45.2509 23.99L45.3509 24.88C45.1842 24.9 44.9942 24.9233 44.7809 24.95C44.5675 24.97 44.3375 24.99 44.0909 25.01C43.8509 25.03 43.5975 25.05 43.3309 25.07C43.0642 25.0833 42.7975 25.1 42.5309 25.12C42.2575 25.14 41.9809 25.1567 41.7009 25.17C41.4209 25.1833 41.1442 25.1967 40.8709 25.21C40.5975 25.2167 40.3309 25.2233 40.0709 25.23C39.8109 25.2367 39.5675 25.24 39.3409 25.24L39.2709 24.32ZM53.3501 24.49C53.1701 24.49 53.0001 24.52 52.8401 24.58C52.6801 24.6333 52.5401 24.71 52.4201 24.81C52.3001 24.91 52.2034 25.03 52.1301 25.17C52.0634 25.3033 52.0301 25.45 52.0301 25.61C52.0301 25.7833 52.0634 25.9367 52.1301 26.07C52.2034 26.21 52.3001 26.3267 52.4201 26.42C52.5401 26.52 52.6801 26.5967 52.8401 26.65C53.0001 26.7033 53.1701 26.73 53.3501 26.73C53.5301 26.73 53.7001 26.7033 53.8601 26.65C54.0201 26.5967 54.1601 26.52 54.2801 26.42C54.4001 26.3267 54.4934 26.21 54.5601 26.07C54.6334 25.9367 54.6701 25.7833 54.6701 25.61C54.6701 25.45 54.6334 25.3033 54.5601 25.17C54.4934 25.03 54.4001 24.91 54.2801 24.81C54.1601 24.71 54.0201 24.6333 53.8601 24.58C53.7001 24.52 53.5301 24.49 53.3501 24.49ZM57.2801 20.26H55.8701V21.26H57.2801V22.18H55.8701V23.46H54.7901V18.28H55.8701V19.34H57.2801V20.26ZM49.1401 18.67H50.2201V21.93C50.8467 21.93 51.5134 21.9 52.2201 21.84C52.9267 21.78 53.6001 21.6867 54.2401 21.56L54.3601 22.46C53.5934 22.6133 52.7567 22.7233 51.8501 22.79C50.9501 22.85 50.0467 22.8733 49.1401 22.86V18.67ZM53.3501 23.56C53.6567 23.56 53.9534 23.6067 54.2401 23.7C54.5334 23.7933 54.7934 23.9267 55.0201 24.1C55.2467 24.2733 55.4267 24.49 55.5601 24.75C55.7001 25.0033 55.7701 25.29 55.7701 25.61C55.7701 25.93 55.7001 26.2167 55.5601 26.47C55.4267 26.73 55.2467 26.9467 55.0201 27.12C54.7934 27.2933 54.5334 27.4267 54.2401 27.52C53.9534 27.6133 53.6567 27.66 53.3501 27.66C53.0434 27.66 52.7434 27.6133 52.4501 27.52C52.1634 27.4267 51.9067 27.2933 51.6801 27.12C51.4534 26.9467 51.2701 26.73 51.1301 26.47C50.9967 26.2167 50.9301 25.93 50.9301 25.61C50.9301 25.29 50.9967 25.0033 51.1301 24.75C51.2701 24.49 51.4534 24.2733 51.6801 24.1C51.9067 23.9267 52.1634 23.7933 52.4501 23.7C52.7434 23.6067 53.0434 23.56 53.3501 23.56ZM60.0293 26.46H58.8893V25.36H60.0293V26.46ZM60.0193 18.91L59.8993 24.72H59.0193L58.8793 18.91H60.0193Z" fill="white"/>
<defs>
<filter id="filter0_d_644_745" x="26" y="38" width="52" height="52" filterUnits="userSpaceOnUse" color-interpolation-filters="sRGB">
<feFlood flood-opacity="0" result="BackgroundImageFix"/>
<feColorMatrix in="SourceAlpha" type="matrix" values="0 0 0 0 0 0 0 0 0 0 0 0 0 0 0 0 0 0 127 0" result="hardAlpha"/>
<feOffset/>
<feGaussianBlur stdDeviation="1.5"/>
<feComposite in2="hardAlpha" operator="out"/>
<feColorMatrix type="matrix" values="0 0 0 0 0 0 0 0 0 0 0 0 0 0 0 0 0 0 0.5 0"/>
<feBlend mode="normal" in2="BackgroundImageFix" result="effect1_dropShadow_644_745"/>
<feBlend mode="normal" in="SourceGraphic" in2="effect1_dropShadow_644_745" result="shape"/>
</filter>
<filter id="filter1_d_644_745" x="26" y="38" width="54" height="54" filterUnits="userSpaceOnUse" color-interpolation-filters="sRGB">
<feFlood flood-opacity="0" result="BackgroundImageFix"/>
<feColorMatrix in="SourceAlpha" type="matrix" values="0 0 0 0 0 0 0 0 0 0 0 0 0 0 0 0 0 0 127 0" result="hardAlpha"/>
<feOffset dx="1" dy="1"/>
<feGaussianBlur stdDeviation="2"/>
<feComposite in2="hardAlpha" operator="out"/>
<feColorMatrix type="matrix" values="0 0 0 0 0 0 0 0 0 0 0 0 0 0 0 0 0 0 0.25 0"/>
<feBlend mode="normal" in2="BackgroundImageFix" result="effect1_dropShadow_644_745"/>
<feBlend mode="normal" in="SourceGraphic" in2="effect1_dropShadow_644_745" result="shape"/>
</filter>
<clipPath id="clip0_644_745">
<rect x="29" y="41" width="46" height="46" rx="23" fill="white"/>
</clipPath>
</defs>
</svg>
