<svg width="21" height="21" viewBox="0 0 21 21" fill="none" xmlns="http://www.w3.org/2000/svg">
<path d="M10.53 16.8544C11.2332 16.8064 11.9306 16.694 12.6133 16.5189C13.4566 16.7724 14.3467 16.8298 15.2156 16.6867C15.2502 16.6824 15.2851 16.6798 15.32 16.6789C15.63 16.6789 16.0367 16.8567 16.63 17.2311V16.6156C16.6303 16.5083 16.6593 16.4031 16.714 16.3109C16.7687 16.2186 16.8471 16.1427 16.9411 16.0911C17.1996 15.9452 17.4385 15.7811 17.6578 15.5989C18.5222 14.8767 19.01 13.9122 19.01 12.8922C19.01 12.5556 18.9567 12.22 18.8511 11.9C19.1133 11.4178 19.3222 10.9144 19.4778 10.39C19.9778 11.1289 20.2467 12.0011 20.25 12.8922C20.25 14.2789 19.5967 15.5722 18.4644 16.5178C18.2748 16.6756 18.0767 16.8207 17.87 16.9533V18.3956C17.87 18.8911 17.29 19.1767 16.8811 18.8811C16.4937 18.596 16.0933 18.3291 15.6811 18.0811C15.562 18.0125 15.4388 17.9512 15.3122 17.8978C14.9683 17.9487 14.621 17.9743 14.2733 17.9744C12.8622 17.9744 11.5578 17.5556 10.53 16.8544ZM3.06222 13.9711C1.28 12.4789 0.25 10.4444 0.25 8.26444C0.25 3.81111 4.50778 0.25 9.70667 0.25C14.9067 0.25 19.1656 3.81 19.1656 8.26444C19.1656 12.7178 14.9067 16.2778 9.70667 16.2778C9.12222 16.2778 8.5463 16.2333 7.97889 16.1444C7.73445 16.2011 6.75445 16.7756 5.34333 17.7922C4.83222 18.1611 4.10778 17.8056 4.10778 17.1844V14.7256C3.7418 14.4993 3.39274 14.2468 3.06333 13.97M8.01333 14.6278C8.0563 14.6278 8.09963 14.6311 8.14333 14.6378C8.65444 14.7222 9.17556 14.7648 9.70667 14.7656C14.0989 14.7656 17.6133 11.8267 17.6133 8.26333C17.6133 4.70111 14.0989 1.76222 9.70778 1.76222C5.31667 1.76222 1.8 4.70333 1.8 8.26444C1.8 9.98667 2.62222 11.6089 4.07333 12.8233C4.43926 13.1285 4.83778 13.4026 5.26889 13.6456C5.38583 13.7105 5.48346 13.8052 5.55178 13.9202C5.6201 14.0352 5.65668 14.1663 5.65778 14.3V15.7178C6.77445 14.9789 7.50889 14.6278 8.01333 14.6278Z" fill="black"/>
<path d="M3.06222 13.9711C1.28 12.4789 0.25 10.4444 0.25 8.26444C0.25 3.81111 4.50778 0.25 9.70667 0.25C14.9067 0.25 19.1656 3.81 19.1656 8.26444C19.1656 12.7178 14.9067 16.2778 9.70667 16.2778C9.12222 16.2778 8.5463 16.2333 7.97889 16.1444C7.73445 16.2011 6.75444 16.7756 5.34333 17.7922C4.83222 18.1611 4.10778 17.8056 4.10778 17.1844V14.7256C3.7418 14.4993 3.39274 14.2468 3.06333 13.97M10.53 16.8544C11.2332 16.8064 11.9306 16.694 12.6133 16.5189C13.4566 16.7724 14.3467 16.8298 15.2156 16.6867C15.2502 16.6824 15.2851 16.6798 15.32 16.6789C15.63 16.6789 16.0367 16.8567 16.63 17.2311V16.6156C16.6303 16.5083 16.6593 16.4031 16.714 16.3109C16.7687 16.2186 16.8471 16.1427 16.9411 16.0911C17.1996 15.9452 17.4385 15.7811 17.6578 15.5989C18.5222 14.8767 19.01 13.9122 19.01 12.8922C19.01 12.5556 18.9567 12.22 18.8511 11.9C19.1133 11.4178 19.3222 10.9144 19.4778 10.39C19.9778 11.1289 20.2467 12.0011 20.25 12.8922C20.25 14.2789 19.5967 15.5722 18.4644 16.5178C18.2748 16.6756 18.0767 16.8207 17.87 16.9533V18.3956C17.87 18.8911 17.29 19.1767 16.8811 18.8811C16.4937 18.596 16.0933 18.3291 15.6811 18.0811C15.562 18.0125 15.4388 17.9512 15.3122 17.8978C14.9683 17.9487 14.621 17.9743 14.2733 17.9744C12.8622 17.9744 11.5578 17.5556 10.53 16.8544ZM8.01333 14.6278C8.0563 14.6278 8.09963 14.6311 8.14333 14.6378C8.65444 14.7222 9.17556 14.7648 9.70667 14.7656C14.0989 14.7656 17.6133 11.8267 17.6133 8.26333C17.6133 4.70111 14.0989 1.76222 9.70778 1.76222C5.31667 1.76222 1.8 4.70333 1.8 8.26444C1.8 9.98667 2.62222 11.6089 4.07333 12.8233C4.43926 13.1285 4.83778 13.4026 5.26889 13.6456C5.38583 13.7105 5.48346 13.8052 5.55178 13.9202C5.6201 14.0352 5.65668 14.1663 5.65778 14.3V15.7178C6.77444 14.9789 7.50889 14.6278 8.01333 14.6278Z" stroke="white" stroke-width="0.5"/>
</svg>
