<svg width="90" height="45" viewBox="0 0 90 45" fill="none" xmlns="http://www.w3.org/2000/svg">
<path d="M44.4756 1C51.8132 1.00009 58.6712 3.05265 64.5156 6.61719L65.1934 7.03027L65.75 6.46484C66.3156 5.88961 67.3631 5.36354 68.7725 4.92285C70.1502 4.49207 71.7445 4.18141 73.2764 3.95996C74.8037 3.73918 76.2439 3.61039 77.3037 3.53711C77.5784 3.51811 77.8274 3.50533 78.0449 3.49316C78.0501 3.63151 78.0588 3.78227 78.0635 3.94434C78.0889 4.83126 78.1008 6.04684 78.0469 7.36426C77.9928 8.68496 77.8731 10.0895 77.6416 11.3594C77.4065 12.6484 77.0714 13.7099 76.6348 14.4072C76.5522 14.539 76.3803 14.6855 75.9404 14.7383L74.209 14.9453L75.2627 16.335C80.0329 22.6249 82.9378 30.419 83.1504 38.8887H5.7998C6.01729 30.223 9.05296 22.2642 14.0215 15.9004L15.2021 14.3887L13.2871 14.2861C12.7261 14.2561 12.5195 14.0848 12.4297 13.9414C11.9859 13.2328 11.6273 12.1593 11.3555 10.8662C11.0876 9.59183 10.9201 8.1845 10.8174 6.8623C10.7149 5.54288 10.6781 4.32541 10.667 3.4375C10.6652 3.2948 10.6657 3.1606 10.665 3.03613C10.9021 3.0514 11.1745 3.07038 11.4756 3.09375C12.6067 3.18155 14.14 3.33008 15.7559 3.5752C17.3767 3.82107 19.0536 4.15971 20.4824 4.61914C21.9505 5.09123 22.9975 5.64272 23.5176 6.22168L24.0674 6.83398L24.7734 6.41309C30.3631 3.082 36.8585 1.12493 43.8018 1.00586L44.4756 1Z" fill="white" stroke="#023E8C" stroke-width="2"/>
<path d="M11.5674 29.3207C17.5504 29.3207 22.1355 33.4631 22.1357 38.2689C22.1357 39.4808 21.8519 40.3279 21.4121 40.9447C20.9692 41.5656 20.3034 42.0431 19.3848 42.4008C18.9155 42.5834 18.3958 42.729 17.8311 42.8451L16.4707 39.7826L14.6426 40.5951L15.7695 43.1322C14.7864 43.2188 13.7141 43.2573 12.5674 43.2699V40.1888H10.5674V43.2699C9.26955 43.2556 8.0671 43.208 6.98145 43.0951L8.09375 40.5951L6.26562 39.7826L4.94043 42.764C4.51491 42.6629 4.11759 42.5435 3.75098 42.4008C2.83211 42.0431 2.16657 41.5657 1.72363 40.9447C1.28373 40.3279 1 39.4809 1 38.2689C1.00025 33.4631 5.58453 29.3208 11.5674 29.3207Z" fill="white" stroke="#023E8C" stroke-width="2"/>
<path d="M77.7827 29.3207C71.7997 29.3207 67.2146 33.4631 67.2144 38.2689C67.2144 39.4808 67.4982 40.3279 67.938 40.9447C68.3809 41.5656 69.0467 42.0431 69.9653 42.4008C70.4346 42.5834 70.9543 42.729 71.519 42.8451L72.8794 39.7826L74.7075 40.5951L73.5806 43.1322C74.5637 43.2188 75.636 43.2573 76.7827 43.2699V40.1888H78.7827V43.2699C80.0805 43.2556 81.283 43.208 82.3687 43.0951L81.2563 40.5951L83.0845 39.7826L84.4097 42.764C84.8352 42.6629 85.2325 42.5435 85.5991 42.4008C86.518 42.0431 87.1835 41.5657 87.6265 40.9447C88.0664 40.3279 88.3501 39.4809 88.3501 38.2689C88.3498 33.4631 83.7656 29.3208 77.7827 29.3207Z" fill="white" stroke="#023E8C" stroke-width="2"/>
<path d="M32.6823 22.4218C33.4271 24.0191 32.1461 24.6524 30.5488 25.3973C28.9515 26.1421 26.6154 25.6007 25.8706 24.0034C25.1258 22.4061 26.8443 21.6232 28.4416 20.8784C30.0389 20.1335 31.9375 20.8246 32.6823 22.4218Z" fill="#023E8C"/>
<path d="M56.6522 22.6528C55.9074 24.2501 57.1884 24.8834 58.7857 25.6282C60.3829 26.373 62.7191 25.8316 63.4639 24.2344C64.2087 22.6371 62.4901 21.8541 60.8929 21.1093C59.2956 20.3645 57.397 21.0555 56.6522 22.6528Z" fill="#023E8C"/>
<path d="M47.866 27.7224C47.866 25.96 46.4373 25.9274 44.675 25.9274C42.9126 25.9274 41.4839 25.96 41.4839 27.7224C41.4839 29.4848 42.9126 30.9135 44.675 30.9135C46.4373 30.9135 47.866 29.4848 47.866 27.7224Z" fill="#023E8C"/>
<path d="M44.6772 30.915C44.6772 33.109 44.6771 33.9834 44.6771 33.9834" stroke="#023E8C" stroke-width="2" stroke-linecap="round"/>
<g filter="url(#filter0_f_585_1056)">
<ellipse cx="38.105" cy="10.4544" rx="4.80425" ry="2.40213" transform="rotate(-10.5023 38.105 10.4544)" fill="#FF9E9E"/>
</g>
<defs>
<filter id="filter0_f_585_1056" x="29.3608" y="3.93481" width="17.4883" height="13.0393" filterUnits="userSpaceOnUse" color-interpolation-filters="sRGB">
<feFlood flood-opacity="0" result="BackgroundImageFix"/>
<feBlend mode="normal" in="SourceGraphic" in2="BackgroundImageFix" result="shape"/>
<feGaussianBlur stdDeviation="2" result="effect1_foregroundBlur_585_1056"/>
</filter>
</defs>
</svg>
