<svg width="90" height="45" viewBox="0 0 90 45" fill="none" xmlns="http://www.w3.org/2000/svg">
<path d="M44.478 1C65.5091 1.00023 82.6281 17.8698 83.1558 38.8906H5.79932C6.32697 17.8696 23.4467 1 44.478 1Z" fill="white" stroke="#023E8C" stroke-width="2"/>
<path d="M11.5684 29.3223C17.5518 29.3223 22.1367 33.4652 22.1367 38.2715C22.1367 39.4835 21.853 40.3304 21.4131 40.9473C20.9702 41.5683 20.3045 42.0456 19.3857 42.4033C18.9163 42.5861 18.3961 42.7306 17.8311 42.8467L16.4707 39.7842L15.5576 40.1904L14.6436 40.5967L15.7715 43.1338C14.7881 43.2204 13.7155 43.2598 12.5684 43.2725V40.1904H10.5684V43.2725C9.27016 43.2582 8.06736 43.2106 6.98145 43.0977L8.09375 40.5967L7.18066 40.1904L6.2666 39.7842L4.94043 42.7666C4.51495 42.6655 4.11756 42.546 3.75098 42.4033C2.83214 42.0456 2.16659 41.5683 1.72363 40.9473C1.28367 40.3304 1.00001 39.4836 1 38.2715C1 33.4652 5.58489 29.3223 11.5684 29.3223Z" fill="white" stroke="#023E8C" stroke-width="2"/>
<path d="M77.7861 29.3223C71.8027 29.3223 67.2178 33.4652 67.2178 38.2715C67.2178 39.4835 67.5015 40.3304 67.9414 40.9473C68.3843 41.5683 69.05 42.0456 69.9688 42.4033C70.4382 42.5861 70.9584 42.7306 71.5234 42.8467L72.8838 39.7842L73.7969 40.1904L74.7109 40.5967L73.583 43.1338C74.5664 43.2204 75.639 43.2598 76.7861 43.2725V40.1904H78.7861V43.2725C80.0843 43.2582 81.2871 43.2106 82.373 43.0977L81.2607 40.5967L82.1738 40.1904L83.0879 39.7842L84.4141 42.7666C84.8395 42.6655 85.2369 42.546 85.6035 42.4033C86.5224 42.0456 87.1879 41.5683 87.6309 40.9473C88.0708 40.3304 88.3545 39.4836 88.3545 38.2715C88.3545 33.4652 83.7696 29.3223 77.7861 29.3223Z" fill="white" stroke="#023E8C" stroke-width="2"/>
<path d="M31.9337 21.036C31.0525 19.5097 29.7988 20.1959 28.2725 21.0771C26.7461 21.9583 25.5251 22.7009 26.4063 24.2273C27.2876 25.7536 29.2393 26.2766 30.7656 25.3953C32.292 24.5141 32.8149 22.5624 31.9337 21.036Z" fill="#023E8C"/>
<path d="M62.5498 24.2272C63.431 22.7009 62.2099 21.9583 60.6836 21.077C59.1573 20.1958 57.9036 19.5096 57.0224 21.036C56.1411 22.5623 56.6641 24.5141 58.1904 25.3953C59.7168 26.2765 61.6685 25.7536 62.5498 24.2272Z" fill="#023E8C"/>
<path d="M47.8683 27.7238C47.8683 25.9613 46.4395 25.9287 44.6771 25.9287C42.9146 25.9287 41.4858 25.9613 41.4858 27.7238C41.4858 29.4863 42.9146 30.915 44.6771 30.915C46.4395 30.915 47.8683 29.4863 47.8683 27.7238Z" fill="#023E8C"/>
<path d="M44.6772 30.915C44.6772 33.109 44.6771 33.9834 44.6771 33.9834" stroke="#023E8C" stroke-width="2" stroke-linecap="round"/>
<path d="M19.1499 6.29276C20.7396 5.29717 22.4176 4.53682 23.7786 4.22477C24.462 4.0681 25.0011 4.04012 25.3839 4.10551C25.7476 4.16766 25.8991 4.2971 25.9772 4.42183C27.8046 7.34012 26.8135 11.3705 23.593 13.3874C20.3726 15.4041 16.3146 14.5358 14.4869 11.6178C14.4088 11.4931 14.3578 11.3005 14.4605 10.9464C14.5688 10.5735 14.8301 10.1002 15.2695 9.55371C16.1443 8.46557 17.5603 7.2883 19.1499 6.29276Z" fill="white" stroke="#023E8C" stroke-width="2"/>
<path d="M69.8072 6.29276C68.2174 5.29717 66.5395 4.53682 65.1785 4.22477C64.4951 4.0681 63.9559 4.04012 63.5732 4.10551C63.2094 4.16766 63.0579 4.2971 62.9798 4.42183C61.1524 7.34012 62.1435 11.3705 65.364 13.3874C68.5845 15.4041 72.6425 14.5358 74.4701 11.6178C74.5482 11.4931 74.5992 11.3005 74.4965 10.9464C74.3882 10.5735 74.127 10.1002 73.6876 9.55371C72.8127 8.46557 71.3968 7.2883 69.8072 6.29276Z" fill="white" stroke="#023E8C" stroke-width="2"/>
<g filter="url(#filter0_f_585_1066)">
<ellipse cx="38.105" cy="10.4544" rx="4.80425" ry="2.40213" transform="rotate(-10.5023 38.105 10.4544)" fill="#FF9E9E"/>
</g>
<defs>
<filter id="filter0_f_585_1066" x="29.3608" y="3.93481" width="17.4883" height="13.0393" filterUnits="userSpaceOnUse" color-interpolation-filters="sRGB">
<feFlood flood-opacity="0" result="BackgroundImageFix"/>
<feBlend mode="normal" in="SourceGraphic" in2="BackgroundImageFix" result="shape"/>
<feGaussianBlur stdDeviation="2" result="effect1_foregroundBlur_585_1066"/>
</filter>
</defs>
</svg>
