<svg width="384" height="190" viewBox="0 0 384 190" fill="none" xmlns="http://www.w3.org/2000/svg">
<path d="M190.856 2C283.14 2.00006 358.092 76.6527 359.159 169.171H22.5532C23.6197 76.6527 98.5716 2 190.856 2Z" fill="white" stroke="#023E8C" stroke-width="4"/>
<path d="M49.6396 123.532C76.2439 123.532 97.2793 142.023 97.2793 164.224C97.2793 169.795 95.9709 173.922 93.75 177.036C91.5229 180.159 88.2506 182.441 84.0146 184.09C75.4346 187.43 63.3981 188 49.6396 188C35.8812 188 23.8447 187.43 15.2646 184.09C11.0287 182.441 7.75638 180.159 5.5293 177.036C3.30837 173.922 2.00004 169.795 2 164.224C2 142.023 23.0354 123.532 49.6396 123.532Z" fill="white" stroke="#023E8C" stroke-width="4"/>
<path d="M333.784 123.532C307.179 123.532 286.144 142.023 286.144 164.224C286.144 169.795 287.452 173.922 289.673 177.036C291.9 180.159 295.173 182.441 299.409 184.09C307.989 187.43 320.025 188 333.784 188C347.542 188 359.579 187.43 368.159 184.09C372.395 182.441 375.667 180.159 377.894 177.036C380.115 173.922 381.423 169.795 381.423 164.224C381.423 142.023 360.388 123.532 333.784 123.532Z" fill="white" stroke="#023E8C" stroke-width="4"/>
<path d="M201 144.214C201 149.619 196.747 154 191.5 154C186.253 154 182 149.619 182 144.214C182 138.809 189.064 139.117 191.5 138C196.127 139.49 201 138.809 201 144.214Z" fill="#FFAEAE"/>
<path d="M140.361 102.703C140.361 110.266 134.23 110.405 126.667 110.405C119.104 110.405 112.973 110.266 112.973 102.703C112.973 95.1399 119.104 89.009 126.667 89.009C134.23 89.009 140.361 95.1399 140.361 102.703Z" fill="#023E8C"/>
<path d="M268.739 102.703C268.739 110.266 262.608 110.405 255.045 110.405C247.482 110.405 241.352 110.266 241.352 102.703C241.352 95.1399 247.482 89.009 255.045 89.009C262.608 89.009 268.739 95.1399 268.739 102.703Z" fill="#023E8C"/>
<path d="M205.405 118.964C205.405 111.401 199.275 111.261 191.712 111.261C184.149 111.261 178.018 111.401 178.018 118.964C178.018 126.527 184.149 132.658 191.712 132.658C199.275 132.658 205.405 126.527 205.405 118.964Z" fill="#023E8C"/>
<path d="M191.712 132.658C191.712 142.072 174.594 148.063 164.324 135.225" stroke="#023E8C" stroke-width="4" stroke-linecap="round"/>
<path d="M191.712 132.658C191.712 142.072 208.829 148.063 219.099 135.225" stroke="#023E8C" stroke-width="4" stroke-linecap="round"/>
<path d="M80.9578 25.0602C87.9131 20.7043 95.3522 17.3112 101.522 15.8966C104.613 15.1879 107.256 15.0058 109.309 15.3566C111.325 15.701 112.637 16.5252 113.409 17.7577C121.99 31.4588 117.239 50.1308 102.457 59.3887C87.6739 68.6463 68.8021 64.768 60.2216 51.0671C59.4497 49.8345 59.2812 48.2938 59.8513 46.3304C60.4321 44.33 61.7499 42.0312 63.7369 39.5599C67.7029 34.627 74.0026 29.416 80.9578 25.0602Z" fill="white" stroke="#023E8C" stroke-width="4"/>
<path d="M300.759 25.0602C293.804 20.7043 286.365 17.3112 280.195 15.8966C277.104 15.1879 274.461 15.0058 272.407 15.3566C270.392 15.701 269.08 16.5252 268.308 17.7577C259.727 31.4588 264.478 50.1308 279.26 59.3887C294.043 68.6463 312.915 64.768 321.495 51.0671C322.267 49.8345 322.436 48.2938 321.866 46.3304C321.285 44.33 319.967 42.0312 317.98 39.5599C314.014 34.627 307.714 29.416 300.759 25.0602Z" fill="white" stroke="#023E8C" stroke-width="4"/>
</svg>
