<svg width="384" height="190" viewBox="0 0 384 190" fill="none" xmlns="http://www.w3.org/2000/svg">
<path d="M190.855 2C222.778 2 252.62 10.9304 278.05 26.4404L279.404 27.2676L280.517 26.1357C283.353 23.2509 288.301 20.8556 294.438 18.9365C300.512 17.0373 307.486 15.6829 314.122 14.7236C320.749 13.7657 326.988 13.2096 331.573 12.8926C333.865 12.7342 335.74 12.6348 337.04 12.5762C337.065 12.5751 337.089 12.5733 337.113 12.5723C337.166 13.6344 337.232 15.0958 337.282 16.8613C337.392 20.704 337.443 25.9753 337.209 31.6963C336.975 37.4237 336.456 43.5637 335.437 49.1553C334.41 54.7858 332.906 59.681 330.801 63.042C329.966 64.3747 328.485 65.2398 326.153 65.5195L322.69 65.9346L324.798 68.7139C345.989 96.6565 358.723 131.424 359.158 169.171H22.5527C22.9977 130.568 36.3034 95.078 58.3662 66.8203L60.7266 63.7979L56.8965 63.5928C54.071 63.4416 52.3264 62.5235 51.3984 61.042C49.2795 57.6585 47.6724 52.7404 46.4873 47.1025C45.31 41.5015 44.5818 35.354 44.1367 29.623C43.6921 23.8981 43.5324 18.6239 43.4844 14.7793C43.4631 13.0721 43.4644 11.6488 43.4717 10.5957C43.5087 10.5977 43.5461 10.5995 43.584 10.6016C44.9746 10.6771 46.9791 10.8006 49.4229 10.9902C54.3132 11.3698 60.9512 12.0154 67.957 13.0781C74.9732 14.1424 82.3039 15.6171 88.5996 17.6416C94.9739 19.6914 99.9662 22.2078 102.626 25.1689L103.726 26.3916L105.138 25.5498C129.85 10.8226 158.634 2.26957 189.39 2.00586L190.855 2Z" fill="white" stroke="#023E8C" stroke-width="4"/>
<path d="M49.6396 123.531C76.2439 123.531 97.2793 142.022 97.2793 164.224C97.2793 169.795 95.9709 173.922 93.75 177.036C91.5229 180.159 88.2506 182.441 84.0146 184.09C75.4346 187.43 63.3981 188 49.6396 188C35.8812 188 23.8447 187.43 15.2646 184.09C11.0287 182.441 7.75638 180.159 5.5293 177.036C3.30837 173.922 2.00004 169.795 2 164.224C2 142.022 23.0354 123.531 49.6396 123.531Z" fill="white" stroke="#023E8C" stroke-width="4"/>
<path d="M333.784 123.531C307.179 123.531 286.144 142.022 286.144 164.224C286.144 169.795 287.452 173.922 289.673 177.036C291.9 180.159 295.173 182.441 299.409 184.09C307.989 187.43 320.025 188 333.784 188C347.542 188 359.579 187.43 368.159 184.09C372.395 182.441 375.667 180.159 377.894 177.036C380.115 173.922 381.423 169.795 381.423 164.224C381.423 142.022 360.388 123.531 333.784 123.531Z" fill="white" stroke="#023E8C" stroke-width="4"/>
<path d="M139.617 105.206C138.304 112.654 132.242 111.727 124.794 110.414C117.346 109.101 110.466 101.447 111.78 93.9995C113.093 86.5516 121.061 88.0294 128.509 89.3426C135.957 90.6559 140.93 97.7583 139.617 105.206Z" fill="#023E8C"/>
<path d="M243.743 106.197C245.057 113.645 251.119 112.718 258.567 111.405C266.015 110.092 272.894 102.439 271.581 94.9907C270.267 87.5428 262.299 89.0206 254.851 90.3339C247.403 91.6471 242.43 98.7495 243.743 106.197Z" fill="#023E8C"/>
<path d="M205.405 118.964C205.405 111.401 199.275 111.261 191.712 111.261C184.149 111.261 178.018 111.401 178.018 118.964C178.018 126.527 184.149 132.658 191.712 132.658C199.275 132.658 205.405 126.527 205.405 118.964Z" fill="#023E8C"/>
<path d="M191.712 132.658C191.712 142.072 174.594 148.063 164.324 135.225" stroke="#023E8C" stroke-width="4" stroke-linecap="round"/>
<path d="M191.712 132.658C191.712 142.072 208.829 148.063 219.099 135.225" stroke="#023E8C" stroke-width="4" stroke-linecap="round"/>
</svg>
