<svg width="384" height="190" viewBox="0 0 384 190" fill="none" xmlns="http://www.w3.org/2000/svg">
<path d="M190.856 4C281.361 4.00006 355.009 76.6749 357.123 167.171H24.5894C26.7033 76.6749 100.351 4 190.856 4Z" fill="white" stroke="#023E8C" stroke-width="8"/>
<path d="M49.6396 125.532C75.4329 125.532 95.2793 143.4 95.2793 164.224C95.2793 169.472 94.0522 173.169 92.1221 175.875C90.1798 178.598 87.2694 180.676 83.2891 182.226C81.1965 183.04 78.8754 183.684 76.3486 184.193L70.4121 170.835L66.7568 172.459L63.1016 174.084L68.1074 185.349C63.6802 185.756 58.8316 185.925 53.6396 185.978V172.459H45.6396V185.978C39.7986 185.919 34.392 185.712 29.5312 185.186L34.4658 174.084L30.8105 172.459L27.1553 170.835L21.3691 183.854C19.4411 183.406 17.6441 182.87 15.9902 182.226C12.0099 180.676 9.09949 178.598 7.15723 175.875C5.22711 173.169 4.00004 169.472 4 164.224C4 143.4 23.8464 125.532 49.6396 125.532Z" fill="white" stroke="#023E8C" stroke-width="8"/>
<path d="M333.64 126C307.846 126 288 143.868 288 164.692C288 169.94 289.227 173.638 291.157 176.344C293.099 179.067 296.01 181.145 299.99 182.694C302.083 183.509 304.404 184.153 306.931 184.661L312.867 171.304L316.522 172.928L320.178 174.553L315.172 185.817C319.599 186.224 324.448 186.394 329.64 186.446V172.928H337.64V186.446C343.481 186.387 348.887 186.18 353.748 185.654L348.813 174.553L352.469 172.928L356.124 171.304L361.91 184.322C363.838 183.874 365.635 183.338 367.289 182.694C371.269 181.145 374.18 179.067 376.122 176.344C378.052 173.638 379.279 169.94 379.279 164.692C379.279 143.868 359.433 126 333.64 126Z" fill="white" stroke="#023E8C" stroke-width="8"/>
<path d="M201 144.214C201 149.619 196.747 154 191.5 154C186.253 154 182 149.619 182 144.214C182 138.809 189.064 139.117 191.5 138C196.127 139.49 201 138.809 201 144.214Z" fill="#FFAEAE"/>
<path d="M140.361 102.703C140.361 110.266 134.23 110.405 126.667 110.405C119.104 110.405 112.973 110.266 112.973 102.703C112.973 95.1399 119.104 89.009 126.667 89.009C134.23 89.009 140.361 95.1399 140.361 102.703Z" fill="#023E8C"/>
<path d="M268.739 102.703C268.739 110.266 262.608 110.405 255.045 110.405C247.482 110.405 241.352 110.266 241.352 102.703C241.352 95.1399 247.482 89.009 255.045 89.009C262.608 89.009 268.739 95.1399 268.739 102.703Z" fill="#023E8C"/>
<path d="M205.405 118.964C205.405 111.401 199.275 111.261 191.712 111.261C184.149 111.261 178.018 111.401 178.018 118.964C178.018 126.527 184.149 132.658 191.712 132.658C199.275 132.658 205.405 126.527 205.405 118.964Z" fill="#023E8C"/>
<path d="M191.712 132.658C191.712 142.072 174.594 148.063 164.324 135.225" stroke="#023E8C" stroke-width="8" stroke-linecap="round"/>
<path d="M191.712 132.658C191.712 142.072 208.829 148.063 219.099 135.225" stroke="#023E8C" stroke-width="8" stroke-linecap="round"/>
<path d="M82.0193 26.7552C88.8579 22.4724 96.0869 19.1937 101.969 17.8451C104.922 17.168 107.278 17.0387 108.972 17.3283C110.591 17.6048 111.323 18.1954 111.714 18.8192C119.65 31.4915 115.337 48.9623 101.395 57.6936C87.4531 66.4247 69.8528 62.6776 61.9166 50.0055C61.5259 49.3817 61.3143 48.4651 61.7722 46.888C62.2516 45.237 63.3963 43.1739 65.2947 40.8127C69.0758 36.1098 75.1809 31.0378 82.0193 26.7552Z" fill="white" stroke="#023E8C" stroke-width="8"/>
<path d="M299.697 26.7552C292.859 22.4724 285.63 19.1937 279.748 17.8451C276.795 17.168 274.439 17.0387 272.744 17.3283C271.126 17.6048 270.393 18.1954 270.003 18.8192C262.067 31.4915 266.38 48.9623 280.322 57.6936C294.264 66.4247 311.864 62.6776 319.8 50.0055C320.191 49.3817 320.402 48.4651 319.945 46.888C319.465 45.237 318.32 43.1739 316.422 40.8127C312.641 36.1098 306.536 31.0378 299.697 26.7552Z" fill="white" stroke="#023E8C" stroke-width="8"/>
</svg>
