<svg width="384" height="190" viewBox="0 0 384 190" fill="none" xmlns="http://www.w3.org/2000/svg">
<path d="M190.855 4C222.4 4 251.883 12.8241 277.008 28.1484L279.718 29.8008L281.943 27.5381C284.423 25.0166 288.976 22.7404 295.035 20.8457C300.968 18.9906 307.827 17.6546 314.408 16.7031C320.972 15.7543 327.159 15.2025 331.712 14.8877C333.025 14.7969 334.199 14.7267 335.205 14.6719C335.232 15.3482 335.259 16.1006 335.282 16.9189C335.391 20.7297 335.443 25.9523 335.211 31.6143C334.979 37.2892 334.466 43.3287 333.469 48.7959C332.458 54.3412 331.01 58.941 329.106 61.9805C328.691 62.6436 327.859 63.3 325.915 63.5332L318.989 64.3643L323.204 69.9219C343.766 97.0342 356.269 130.648 357.122 167.171H24.5889C25.4616 129.804 38.5274 95.4811 59.9434 68.0518L64.6641 62.0049L57.0039 61.5957C54.5428 61.4641 53.5472 60.706 53.0928 59.9805C51.1611 56.896 49.6131 52.2513 48.4443 46.6914C47.2911 41.2052 46.5711 35.1506 46.1299 29.4688C45.6896 23.7985 45.532 18.5686 45.4844 14.7539C45.4752 14.0197 45.4719 13.3386 45.4697 12.7178C46.5599 12.7866 47.8377 12.8734 49.2676 12.9844C54.1262 13.3615 60.7136 14.0014 67.6572 15.0547C74.6211 16.1111 81.8347 17.5674 87.9873 19.5459C94.297 21.5749 98.8525 23.9596 101.139 26.5049L103.336 28.9521L106.162 27.2686C130.579 12.7177 159.016 4.26638 189.407 4.00586L190.855 4Z" fill="white" stroke="#023E8C" stroke-width="8"/>
<path d="M49.6396 125.531C75.4329 125.531 95.2793 143.399 95.2793 164.224C95.2793 169.472 94.0522 173.169 92.1221 175.875C90.1798 178.598 87.2694 180.676 83.2891 182.226C81.1965 183.04 78.8754 183.684 76.3486 184.193L70.4121 170.835L66.7568 172.459L63.1016 174.084L68.1074 185.349C63.6802 185.755 58.8316 185.925 53.6396 185.978V172.459H45.6396V185.978C39.7986 185.919 34.392 185.712 29.5312 185.186L34.4658 174.084L30.8105 172.459L27.1553 170.835L21.3691 183.854C19.4411 183.405 17.6441 182.87 15.9902 182.226C12.0099 180.676 9.09949 178.598 7.15723 175.875C5.22711 173.169 4.00004 169.472 4 164.224C4 143.399 23.8464 125.531 49.6396 125.531Z" fill="white" stroke="#023E8C" stroke-width="8"/>
<path d="M333.784 125.531C307.99 125.531 288.144 143.399 288.144 164.224C288.144 169.472 289.371 173.169 291.301 175.875C293.244 178.598 296.154 180.676 300.134 182.226C302.227 183.04 304.548 183.684 307.075 184.193L313.011 170.835L316.667 172.459L320.322 174.084L315.316 185.349C319.743 185.755 324.592 185.925 329.784 185.978V172.459H337.784V185.978C343.625 185.919 349.031 185.712 353.892 185.186L348.958 174.084L352.613 172.459L356.268 170.835L362.054 183.854C363.982 183.405 365.779 182.87 367.433 182.226C371.413 180.676 374.324 178.598 376.266 175.875C378.196 173.169 379.423 169.472 379.423 164.224C379.423 143.399 359.577 125.531 333.784 125.531Z" fill="white" stroke="#023E8C" stroke-width="8"/>
<path d="M139.617 105.206C138.304 112.654 132.242 111.727 124.794 110.414C117.346 109.101 110.466 101.447 111.78 93.9995C113.093 86.5516 121.061 88.0294 128.509 89.3426C135.957 90.6559 140.93 97.7583 139.617 105.206Z" fill="#023E8C"/>
<path d="M243.743 106.197C245.057 113.645 251.119 112.718 258.567 111.405C266.015 110.092 272.894 102.439 271.581 94.9907C270.267 87.5428 262.299 89.0206 254.851 90.3339C247.403 91.6471 242.43 98.7495 243.743 106.197Z" fill="#023E8C"/>
<path d="M205.405 118.964C205.405 111.401 199.275 111.261 191.712 111.261C184.149 111.261 178.018 111.401 178.018 118.964C178.018 126.527 184.149 132.658 191.712 132.658C199.275 132.658 205.405 126.527 205.405 118.964Z" fill="#023E8C"/>
<path d="M191.712 132.658C191.712 142.072 174.594 148.063 164.324 135.225" stroke="#023E8C" stroke-width="8" stroke-linecap="round"/>
<path d="M191.712 132.658C191.712 142.072 208.829 148.063 219.099 135.225" stroke="#023E8C" stroke-width="8" stroke-linecap="round"/>
</svg>
