<svg width="14" height="14" viewBox="0 0 14 14" fill="none" xmlns="http://www.w3.org/2000/svg">
<g clip-path="url(#clip0_344_1033)">
<path d="M4.6377 13.3C3.54103 13.3 2.6105 12.9178 1.8461 12.1534C1.0817 11.389 0.699729 10.4589 0.700196 9.36321C0.700196 8.83821 0.799362 8.33655 0.997696 7.85821C1.19603 7.37988 1.48186 6.95381 1.8552 6.58001L6.5802 1.85501C6.95353 1.48168 7.37936 1.19585 7.8577 0.997512C8.33603 0.799179 8.8377 0.700012 9.3627 0.700012C10.4594 0.700012 11.3899 1.08198 12.1543 1.84591C12.9187 2.60985 13.3007 3.54038 13.3002 4.63751C13.3002 5.16251 13.201 5.66418 13.0027 6.14251C12.8044 6.62085 12.5185 7.04668 12.1452 7.42001L7.4202 12.145C7.04686 12.5183 6.62103 12.8042 6.1427 13.0025C5.66436 13.2008 5.1627 13.3 4.6377 13.3ZM9.2927 8.29501L11.1652 6.44001C11.3985 6.20668 11.5794 5.93251 11.7077 5.61751C11.836 5.30251 11.9002 4.97585 11.9002 4.63751C11.9002 3.93751 11.6524 3.33971 11.1568 2.84411C10.6612 2.34851 10.0632 2.10048 9.3627 2.10001C9.02436 2.10001 8.6977 2.16418 8.3827 2.29251C8.0677 2.42085 7.79353 2.60168 7.5602 2.83501L5.7052 4.70751L9.2927 8.29501ZM4.6377 11.9C4.97603 11.9 5.3027 11.8358 5.6177 11.7075C5.9327 11.5792 6.20686 11.3983 6.4402 11.165L8.2952 9.29251L4.7077 5.70501L2.8352 7.56001C2.60186 7.79335 2.42103 8.06751 2.2927 8.38251C2.16436 8.69751 2.1002 9.02418 2.1002 9.36251C2.1002 10.0625 2.34823 10.6605 2.8443 11.1566C3.34036 11.6527 3.93816 11.9005 4.6377 11.9Z" fill="black"/>
</g>
<defs>
<clipPath id="clip0_344_1033">
<rect width="14" height="14" fill="white"/>
</clipPath>
</defs>
</svg>
