<svg width="16" height="16" viewBox="0 0 16 16" fill="none" xmlns="http://www.w3.org/2000/svg">
<g opacity="0.3">
<path d="M7.9998 6.62845C5.82815 6.62845 3.99318 8.52479 3.40072 10.9605C3.14015 12.0315 3.53306 13.1685 4.49752 13.7026C5.26209 14.1261 6.39935 14.5142 7.9998 14.5142C9.60026 14.5142 10.7379 14.1261 11.5024 13.7026C12.4669 13.1685 12.8595 12.0315 12.5989 10.9605C12.0064 8.52445 10.1715 6.62845 7.9998 6.62845ZM0.799805 6.09497C0.799805 7.04194 1.41352 7.99988 2.17123 7.99988C2.92895 7.99988 3.54266 7.04194 3.54266 6.09497C3.54266 5.148 2.92895 4.57131 2.17123 4.57131C1.41352 4.57131 0.799805 5.14834 0.799805 6.09497ZM15.1998 6.09497C15.1998 7.04194 14.5861 7.99988 13.8284 7.99988C13.0707 7.99988 12.4569 7.04194 12.4569 6.09497C12.4569 5.148 13.0707 4.57131 13.8284 4.57131C14.5861 4.57131 15.1998 5.14834 15.1998 6.09497ZM4.3998 3.00925C4.3998 3.95622 5.01352 4.91417 5.77123 4.91417C6.52895 4.91417 7.14266 3.95622 7.14266 3.00925C7.14266 2.06228 6.52895 1.4856 5.77123 1.4856C5.01352 1.4856 4.3998 2.06262 4.3998 3.00925ZM11.5998 3.00925C11.5998 3.95622 10.9861 4.91417 10.2284 4.91417C9.47066 4.91417 8.85695 3.95622 8.85695 3.00925C8.85695 2.06228 9.47066 1.4856 10.2284 1.4856C10.9861 1.4856 11.5998 2.06262 11.5998 3.00925Z" fill="#2065C0"/>
</g>
</svg>
