<svg width="25" height="25" viewBox="0 0 25 25" fill="none" xmlns="http://www.w3.org/2000/svg">
<path d="M12.499 3C18.299 3 23 6.664 23 11.185C23 15.705 18.299 19.369 12.5 19.369C11.9226 19.368 11.3458 19.3312 10.773 19.259L6.365 22.142C5.864 22.407 5.687 22.378 5.893 21.729L6.785 18.051C3.905 16.591 2 14.061 2 11.185C2 6.665 6.7 3 12.5 3M18.408 11.06L19.878 9.636C19.9628 9.54791 20.0101 9.43033 20.01 9.30804C20.0098 9.18575 19.9622 9.0683 19.8772 8.98041C19.7922 8.89252 19.6763 8.84107 19.5541 8.83689C19.4319 8.83271 19.3128 8.87613 19.222 8.958L17.294 10.824V9.282C17.294 9.15682 17.2443 9.03676 17.1558 8.94825C17.0672 8.85973 16.9472 8.81 16.822 8.81C16.6968 8.81 16.5768 8.85973 16.4882 8.94825C16.3997 9.03676 16.35 9.15682 16.35 9.282V11.839C16.3334 11.9121 16.3334 11.9879 16.35 12.061V13.5C16.35 13.6252 16.3997 13.7452 16.4882 13.8338C16.5768 13.9223 16.6968 13.972 16.822 13.972C16.9472 13.972 17.0672 13.9223 17.1558 13.8338C17.2443 13.7452 17.294 13.6252 17.294 13.5V12.137L17.721 11.724L19.149 13.757C19.1847 13.8078 19.23 13.851 19.2823 13.8842C19.3347 13.9175 19.3931 13.9401 19.4542 13.9508C19.5153 13.9615 19.5779 13.96 19.6384 13.9465C19.699 13.933 19.7562 13.9077 19.807 13.872C19.8578 13.8363 19.901 13.791 19.9342 13.7387C19.9675 13.6863 19.9901 13.6279 20.0008 13.5668C20.0115 13.5057 20.01 13.4431 19.9965 13.3826C19.983 13.322 19.9577 13.2648 19.922 13.214L18.408 11.06ZM15.45 12.984H13.99V9.297C13.9844 9.17571 13.9323 9.06123 13.8445 8.97737C13.7567 8.89351 13.6399 8.84672 13.5185 8.84672C13.3971 8.84672 13.2803 8.89351 13.1925 8.97737C13.1047 9.06123 13.0526 9.17571 13.047 9.297V13.456C13.047 13.716 13.257 13.928 13.518 13.928H15.45C15.5752 13.928 15.6952 13.8783 15.7838 13.7898C15.8723 13.7012 15.922 13.5812 15.922 13.456C15.922 13.3308 15.8723 13.2108 15.7838 13.1222C15.6952 13.0337 15.5752 12.984 15.45 12.984ZM9.593 11.893L10.289 10.185L10.927 11.892L9.593 11.893ZM12.116 12.38L12.118 12.364C12.1177 12.2451 12.0723 12.1308 11.991 12.044L10.945 9.244C10.9012 9.11057 10.8176 8.99369 10.7056 8.90899C10.5935 8.8243 10.4583 8.7758 10.318 8.77C10.1768 8.76994 10.0388 8.81259 9.92227 8.89237C9.80573 8.97215 9.71605 9.08531 9.665 9.217L8.003 13.292C7.95566 13.4079 7.9563 13.5379 8.00478 13.6533C8.05325 13.7687 8.1456 13.8602 8.2615 13.9075C8.3774 13.9548 8.50736 13.9542 8.62279 13.9057C8.73822 13.8572 8.82966 13.7649 8.877 13.649L9.209 12.836H11.279L11.577 13.636C11.5973 13.6958 11.6295 13.7509 11.6715 13.7981C11.7135 13.8452 11.7645 13.8835 11.8216 13.9105C11.8787 13.9376 11.9406 13.9529 12.0037 13.9557C12.0668 13.9584 12.1298 13.9484 12.189 13.9263C12.2481 13.9042 12.3023 13.8704 12.3482 13.8271C12.394 13.7837 12.4308 13.7315 12.4561 13.6737C12.4815 13.6158 12.495 13.5535 12.4958 13.4903C12.4967 13.4272 12.4848 13.3645 12.461 13.306L12.116 12.38ZM8.793 9.302C8.79326 9.24003 8.78127 9.17861 8.7577 9.12129C8.73414 9.06397 8.69947 9.01188 8.6557 8.96801C8.61192 8.92414 8.5599 8.88936 8.50263 8.86568C8.44536 8.84199 8.38397 8.82987 8.322 8.83H5.077C4.95182 8.83 4.83176 8.87973 4.74325 8.96825C4.65473 9.05676 4.605 9.17682 4.605 9.302C4.605 9.42718 4.65473 9.54724 4.74325 9.63575C4.83176 9.72427 4.95182 9.774 5.077 9.774H6.237V13.51C6.237 13.6352 6.28673 13.7552 6.37525 13.8438C6.46376 13.9323 6.58382 13.982 6.709 13.982C6.83418 13.982 6.95424 13.9323 7.04275 13.8438C7.13127 13.7552 7.181 13.6352 7.181 13.51V9.774H8.321C8.38306 9.77426 8.44455 9.76224 8.50194 9.73861C8.55932 9.71498 8.61146 9.68023 8.65534 9.63634C8.69923 9.59246 8.73398 9.54032 8.75761 9.48294C8.78124 9.42555 8.79326 9.36406 8.793 9.302Z" fill="#202027"/>
</svg>
