<svg width="24" height="24" viewBox="0 0 24 24" fill="none" xmlns="http://www.w3.org/2000/svg">
<path fill-rule="evenodd" clip-rule="evenodd" d="M19.3534 4.14652C19.4471 4.24028 19.4998 4.36743 19.4998 4.50002C19.4998 4.6326 19.4471 4.75975 19.3534 4.85352L14.3359 9.87102C14.7394 9.87452 15.1579 9.86902 15.6029 9.86302C15.9909 9.85802 16.3984 9.85301 16.8329 9.85301C18.0249 9.85301 18.8519 10.321 19.3669 11.066C19.8594 11.7785 20.0294 12.688 20.0619 13.526C20.0954 14.3735 19.9904 15.211 19.8799 15.8285C19.8221 16.1532 19.7521 16.4756 19.6699 16.795L19.6664 16.806V19.5C19.6664 19.6326 19.6137 19.7598 19.5199 19.8536C19.4261 19.9473 19.299 20 19.1664 20H16.9999C16.8672 20 16.7401 19.9473 16.6463 19.8536C16.5525 19.7598 16.4999 19.6326 16.4999 19.5C16.4999 19.0765 16.5639 18.7515 16.6849 18.491C16.8089 18.223 16.9749 18.065 17.0964 17.9595L17.1694 17.8955C16.3104 17.401 15.8059 16.987 15.4084 16.459C15.1964 16.178 15.0244 15.877 14.8464 15.5435C14.7765 15.4119 14.7073 15.2799 14.6389 15.1475C14.5719 15.0185 14.5019 14.8835 14.4254 14.7385L10.9999 15.8735V18.637C10.9999 18.956 10.9494 19.287 10.7394 19.552C10.5224 19.826 10.2129 19.932 9.92436 19.9795C9.63936 20.026 9.29236 20.0275 8.90986 20.0215L8.67186 20.017L8.52186 20.014C8.18126 20.0055 7.84057 20.0008 7.49986 20C7.29486 20 7.07786 19.9115 6.94586 19.7025C6.83636 19.529 6.83136 19.3425 6.84136 19.224C6.86186 18.979 6.97136 18.7165 7.09936 18.498C7.2404 18.2536 7.42179 18.0349 7.63586 17.851C7.84236 17.6785 8.12686 17.5125 8.46236 17.501V17.499C8.46561 17.4078 8.4626 17.3164 8.45336 17.2255C8.4373 17.0675 8.41796 16.9098 8.39536 16.7525C8.34436 16.3715 8.27836 15.882 8.25686 15.3535C7.79986 15.1575 7.43536 14.9385 7.16186 14.662C6.81186 14.307 6.65086 13.896 6.58786 13.4305C6.52786 12.9905 6.55336 12.474 6.58686 11.8965L6.59686 11.7275C6.62036 11.3195 6.64686 10.8625 6.65936 10.341C6.11586 10.478 5.51736 10.5 4.99986 10.5C3.98986 10.5 3.49986 9.64402 3.28136 9.05652C3.18044 8.77797 3.10447 8.49101 3.05436 8.19902C3.03326 8.07867 3.01659 7.95759 3.00436 7.83602L3.00236 7.81202L3.00136 7.80502V7.80152C2.99321 7.6912 3.02187 7.5813 3.08285 7.48902C3.14383 7.39673 3.23369 7.32727 3.33836 7.29152L3.56536 7.21352C4.065 7.04241 4.56434 6.87041 5.06336 6.69752C5.14686 6.44002 5.30136 6.19602 5.46436 5.99702C5.72086 5.68352 6.07486 5.38452 6.47536 5.19702C6.87536 5.01052 7.37136 4.91352 7.86036 5.10302C8.35586 5.29502 8.72886 5.73602 8.96886 6.38202C9.35386 7.41952 9.78386 8.13051 10.2544 8.62551C10.7194 9.11451 11.2424 9.41152 11.8494 9.59402C12.2201 9.70188 12.6003 9.77372 12.9849 9.80852L18.6464 4.14652C18.7401 4.05278 18.8673 4.00012 18.9999 4.00012C19.1324 4.00012 19.2596 4.05278 19.3534 4.14652ZM11.5609 10.5515C11.7389 10.6045 11.9205 10.6495 12.1059 10.6865L11.0429 11.75H7.59686C7.62686 11.2285 7.66286 10.6035 7.66636 9.86152C7.78436 9.76485 7.89053 9.65118 7.98486 9.52052C8.21586 9.19702 8.33336 8.80001 8.33336 8.33751H7.33336C7.33336 8.62551 7.26286 8.81102 7.17086 8.93952C7.07686 9.07152 6.93186 9.18202 6.72236 9.27052C6.28336 9.45552 5.66736 9.50002 4.99986 9.50002C4.67686 9.50002 4.41636 9.23802 4.21836 8.70752C4.14681 8.5109 4.09162 8.30871 4.05336 8.10301L4.43486 7.97202C4.84611 7.83137 5.25678 7.68904 5.66686 7.54502C5.7643 7.51049 5.84864 7.44661 5.90827 7.36217C5.96791 7.27773 5.9999 7.17689 5.99986 7.07352C5.99986 7.03152 6.04736 6.86352 6.23836 6.62952C6.41436 6.41452 6.65386 6.21752 6.89936 6.10252C7.14486 5.98752 7.34686 5.97602 7.49936 6.03502C7.64386 6.09102 7.85436 6.25402 8.03136 6.73002C8.44736 7.85002 8.93836 8.69202 9.52986 9.31402C10.1264 9.94152 10.8049 10.324 11.5609 10.551M10.3429 15.0375L10.7499 14.9025V12.75H7.55186C7.54986 12.96 7.55686 13.1385 7.57886 13.2965C7.61986 13.599 7.70886 13.7925 7.87386 13.96C8.05636 14.145 8.36736 14.334 8.92636 14.545C9.02138 14.5809 9.10323 14.6448 9.16102 14.7283C9.21881 14.8118 9.2498 14.911 9.24986 15.0125C9.24986 15.6025 9.31586 16.0865 9.37486 16.523C9.40436 16.7365 9.43186 16.939 9.44936 17.137C9.47186 17.393 9.48636 17.722 9.36036 17.9955C9.2858 18.1615 9.15879 18.2983 8.99886 18.385C8.84457 18.4639 8.67313 18.5035 8.49986 18.5C8.47686 18.5 8.39986 18.5155 8.27786 18.618C8.15225 18.7276 8.04579 18.8574 7.96286 19.002L7.96236 19.0035C8.17703 19.0065 8.37536 19.0102 8.55736 19.0145L8.92586 19.0215C9.31686 19.028 9.57886 19.0225 9.76286 18.9925C9.82011 18.985 9.8761 18.9698 9.92936 18.9475C9.93705 18.9438 9.94441 18.9395 9.95136 18.9345L9.95236 18.934L9.95586 18.931C9.95686 18.9295 9.99986 18.8745 9.99986 18.637V15.5125C9.9999 15.4074 10.0331 15.305 10.0946 15.2198C10.1562 15.1346 10.2431 15.0705 10.3429 15.0375ZM13.3654 10.8415L11.7499 12.457V14.572L14.5094 13.657C14.6205 13.6202 14.741 13.6236 14.8499 13.6665C14.9589 13.7095 15.0492 13.7893 15.1054 13.892C15.2689 14.191 15.4114 14.465 15.5364 14.705C15.6057 14.8393 15.6699 14.962 15.7289 15.073C15.9004 15.395 16.0439 15.6405 16.2069 15.8575C16.5219 16.275 16.9474 16.635 17.9079 17.1635C17.9674 17.1964 18.0196 17.241 18.0613 17.2948C18.103 17.3485 18.1333 17.4102 18.1504 17.476C18.2254 17.7645 18.2389 18.043 18.1134 18.3C18.0179 18.495 17.8499 18.6335 17.7754 18.695L17.7684 18.7005L17.7514 18.715C17.6764 18.78 17.6304 18.8285 17.5914 18.9115C17.5784 18.9402 17.5674 18.9698 17.5584 19H18.6664V16.848L17.0459 13.323L17.9544 12.9055L18.9774 15.1305C19.0414 14.6505 19.0839 14.1055 19.0624 13.5655C19.0329 12.8065 18.8799 12.12 18.5444 11.635C18.2314 11.1825 17.7249 10.853 16.8334 10.853C16.4304 10.853 16.0334 10.858 15.6469 10.863C15.0619 10.8705 14.5019 10.8775 13.9879 10.866C13.7772 10.8613 13.5697 10.853 13.3654 10.841" fill="black"/>
</svg>
