<svg width="108" height="82" viewBox="0 0 108 82" fill="none" xmlns="http://www.w3.org/2000/svg">
<path d="M54.7032 0.0341797C103.29 1.63541 111.251 50.6367 107.013 54.4971C102.733 58.3912 87.0389 57.9591 84.1847 56.2285C81.3313 54.4975 79.0256 39.3215 72.9386 38.9746C65.3294 38.5419 62.4289 40.371 62.4288 50.3604C62.429 58.1484 68.4906 63.5836 73.7218 64.0166C73.83 64.0151 93.3685 63.7358 99.4034 64.0166C100.354 64.0169 100.205 64.8698 99.879 65.3145C96.0745 70.5067 82.7579 78.2955 74.1974 79.5938C69.9172 80.2428 60.4665 82.3004 57.6124 80.1377C54.7592 77.9744 56.1086 59.028 55.8605 57.8047C55.6563 56.8013 55.0056 56.3736 54.0001 56.2529C52.995 56.3736 52.3448 56.8016 52.1407 57.8047C51.8927 59.0281 53.242 77.9743 50.3888 80.1377C47.535 82.3007 38.0841 80.2428 33.8038 79.5938C25.2434 78.2957 11.9268 70.5067 8.12219 65.3145C7.79649 64.8698 7.64676 64.0166 8.59778 64.0166C14.6455 63.7352 34.2539 64.0162 34.2794 64.0166C39.5106 63.5836 45.5722 58.1484 45.5724 50.3604C45.5724 40.371 42.6719 38.5419 35.0626 38.9746C28.9753 39.3208 26.67 54.4974 23.8165 56.2285C20.963 57.9593 5.26865 58.3913 0.988403 54.4971C-3.25081 50.6383 4.70996 1.63519 53.298 0.0341797V0C53.533 0.0032655 53.767 0.00920476 54.0001 0.0146484C54.2336 0.00919541 54.4679 0.00326879 54.7032 0V0.0341797Z" fill="#023E8C"/>
</svg>
