<svg width="14" height="14" viewBox="0 0 14 14" fill="none" xmlns="http://www.w3.org/2000/svg">
<g clip-path="url(#clip0_344_1047)">
<path d="M2.0299 9.83495V12.04C2.0299 12.3741 2.16265 12.6946 2.39895 12.9309C2.63524 13.1672 2.95573 13.3 3.2899 13.3H10.8499C11.1841 13.3 11.5046 13.1672 11.7409 12.9309C11.9772 12.6946 12.1099 12.3741 12.1099 12.04V9.83495M1.3999 8.25995V7.62995C1.3999 7.29578 1.53265 6.97529 1.76895 6.739C2.00524 6.5027 2.32573 6.36995 2.6599 6.36995H11.4799C11.8141 6.36995 12.1346 6.5027 12.3709 6.739C12.6072 6.97529 12.7399 7.29578 12.7399 7.62995V8.25995M7.0699 4.47995V6.36995M7.0699 4.47995C7.86496 4.47995 8.3299 3.87011 8.3299 2.8262C8.3299 1.78229 7.0699 0.699951 7.0699 0.699951C7.0699 0.699951 5.8099 1.78229 5.8099 2.8262C5.8099 3.87011 6.27484 4.47995 7.0699 4.47995Z" stroke="black" stroke-linecap="round" stroke-linejoin="round"/>
<path d="M1.3999 8.26001C1.3999 8.76127 1.59903 9.242 1.95347 9.59644C2.30791 9.95089 2.78864 10.15 3.2899 10.15C3.79116 10.15 4.27189 9.95089 4.62633 9.59644C4.98078 9.242 5.1799 8.76127 5.1799 8.26001C5.1799 8.76127 5.37903 9.242 5.73347 9.59644C6.08791 9.95089 6.56864 10.15 7.0699 10.15C7.57116 10.15 8.05189 9.95089 8.40633 9.59644C8.76078 9.242 8.9599 8.76127 8.9599 8.26001C8.9599 8.76127 9.15903 9.242 9.51347 9.59644C9.86791 9.95089 10.3486 10.15 10.8499 10.15C11.3512 10.15 11.8319 9.95089 12.1863 9.59644C12.5408 9.242 12.7399 8.76127 12.7399 8.26001" stroke="black" stroke-linecap="round" stroke-linejoin="round"/>
</g>
<defs>
<clipPath id="clip0_344_1047">
<rect width="14" height="14" fill="white"/>
</clipPath>
</defs>
</svg>
