<svg width="14" height="14" viewBox="0 0 14 14" fill="none" xmlns="http://www.w3.org/2000/svg">
<g clip-path="url(#clip0_344_1033)">
<path d="M5.5 0.999929C5.36739 0.999929 5.24021 1.0526 5.14645 1.14636C5.05268 1.24013 5 1.36729 5 1.49989V4.50068C5 4.63328 4.94732 4.76045 4.85355 4.85421C4.75979 4.94797 4.63261 5.00064 4.5 5.00064H1.5C1.36739 5.00064 1.24021 5.05332 1.14645 5.14708C1.05268 5.24084 1 5.36801 1 5.50061V8.50039C1 8.63299 1.05268 8.76016 1.14645 8.85392C1.24021 8.94768 1.36739 9.00036 1.5 9.00036H4.5C4.63261 9.00036 4.75979 9.05303 4.85355 9.14679C4.94732 9.24055 5 9.36772 5 9.50032V12.5001C5 12.6327 5.05268 12.7599 5.14645 12.8536C5.24021 12.9474 5.36739 13.0001 5.5 13.0001H8.5C8.63261 13.0001 8.75979 12.9474 8.85355 12.8536C8.94732 12.7599 9 12.6327 9 12.5001V9.50032C9 9.36772 9.05268 9.24055 9.14645 9.14679C9.24021 9.05303 9.36739 9.00036 9.5 9.00036H12.5C12.6326 9.00036 12.7598 8.94768 12.8536 8.85392C12.9473 8.76016 13 8.63299 13 8.50039V5.50061C13 5.36801 12.9473 5.24084 12.8536 5.14708C12.7598 5.05332 12.6326 5.00064 12.5 5.00064H9.5C9.36739 5.00064 9.24021 4.94797 9.14645 4.85421C9.05268 4.76045 9 4.63328 9 4.50068V1.49989C9 1.36729 8.94732 1.24013 8.85355 1.14636C8.75979 1.0526 8.63261 0.999929 8.5 0.999929H5.5ZM4 1.49989C4 1.1021 4.15803 0.720593 4.43934 0.439308C4.72064 0.158024 5.10218 0 5.5 0H8.5C8.89783 0 9.27936 0.158024 9.56066 0.439308C9.84196 0.720593 10 1.1021 10 1.49989V4.00071H12.5C12.8978 4.00071 13.2794 4.15874 13.5607 4.44002C13.842 4.72131 14 5.10281 14 5.50061V8.50039C14 8.89819 13.842 9.27969 13.5607 9.56098C13.2794 9.84226 12.8978 10.0003 12.5 10.0003H10V12.5001C10 12.8979 9.84196 13.2794 9.56066 13.5607C9.27936 13.842 8.89783 14 8.5 14H5.5C5.10218 14 4.72064 13.842 4.43934 13.5607C4.15803 13.2794 4 12.8979 4 12.5001V10.0003H1.5C1.10218 10.0003 0.720644 9.84226 0.43934 9.56098C0.158035 9.27969 0 8.89819 0 8.50039V5.50061C0 5.10281 0.158035 4.72131 0.43934 4.44002C0.720644 4.15874 1.10218 4.00071 1.5 4.00071H4V1.49989Z" fill="black"/>
</g>
<defs>
<clipPath id="clip0_344_1033">
<rect width="14" height="14" fill="white"/>
</clipPath>
</defs>
</svg>
