<svg width="20" height="20" viewBox="0 0 20 20" fill="none" xmlns="http://www.w3.org/2000/svg">
<g clip-path="url(#clip0_300_1109)">
<path d="M7.85742 0.0996094H12.1426C12.6843 0.0996094 13.2038 0.315322 13.5869 0.698242C13.97 1.08129 14.1855 1.60087 14.1855 2.14258V5.81543H17.8574C18.3991 5.8155 18.9187 6.03105 19.3018 6.41406C19.6847 6.79712 19.9004 7.31677 19.9004 7.8584V12.1436C19.9004 12.6853 19.6848 13.2048 19.3018 13.5879C18.9187 13.9709 18.3991 14.1864 17.8574 14.1865H14.1855V17.8574C14.1855 18.3991 13.97 18.9187 13.5869 19.3018C13.2038 19.6847 12.6843 19.9004 12.1426 19.9004H7.85742C7.31574 19.9004 6.79617 19.6847 6.41309 19.3018C6.03001 18.9187 5.81449 18.3991 5.81445 17.8574V14.1865H2.14258C1.60088 14.1864 1.08129 13.9709 0.698242 13.5879C0.315174 13.2048 0.0996452 12.6853 0.0996094 12.1436V7.8584C0.0996094 7.31677 0.315306 6.79712 0.698242 6.41406C1.08129 6.03105 1.60088 5.8155 2.14258 5.81543H5.81445V2.14258C5.81449 1.60087 6.03001 1.08129 6.41309 0.698242C6.79617 0.315322 7.31574 0.0996094 7.85742 0.0996094ZM7.85742 1.32812C7.64146 1.32812 7.43396 1.41468 7.28125 1.56738C7.12874 1.72003 7.043 1.9268 7.04297 2.14258V6.42969C7.04293 6.59254 6.97845 6.7491 6.86328 6.86426C6.74812 6.9794 6.59157 7.04391 6.42871 7.04395H2.14258C1.9268 7.04402 1.72001 7.1297 1.56738 7.28223C1.41467 7.43492 1.32812 7.64245 1.32812 7.8584V12.1436C1.32816 12.3594 1.41474 12.5661 1.56738 12.7188C1.72003 12.8714 1.92672 12.9579 2.14258 12.958H6.42871C6.59158 12.958 6.74811 13.0225 6.86328 13.1377C6.97833 13.2529 7.04297 13.4095 7.04297 13.5723V17.8574C7.043 18.0732 7.12874 18.28 7.28125 18.4326C7.43396 18.5853 7.64146 18.6719 7.85742 18.6719H12.1426C12.3585 18.6719 12.566 18.5853 12.7188 18.4326C12.8713 18.28 12.957 18.0732 12.957 17.8574V13.5723C12.957 13.4095 13.0217 13.2529 13.1367 13.1377C13.2519 13.0225 13.4084 12.958 13.5713 12.958H17.8574C18.0733 12.9579 18.28 12.8714 18.4326 12.7188C18.5853 12.5661 18.6718 12.3594 18.6719 12.1436V7.8584C18.6719 7.64245 18.5853 7.43493 18.4326 7.28223C18.28 7.1297 18.0732 7.04402 17.8574 7.04395H13.5713C13.4084 7.04391 13.2519 6.9794 13.1367 6.86426C13.0216 6.7491 12.9571 6.59254 12.957 6.42969V2.14258C12.957 1.9268 12.8713 1.72003 12.7188 1.56738C12.566 1.41469 12.3585 1.32812 12.1426 1.32812H7.85742Z" fill="black" stroke="white" stroke-width="0.2"/>
</g>
<defs>
<clipPath id="clip0_300_1109">
<rect width="20" height="20" fill="white"/>
</clipPath>
</defs>
</svg>
