<svg width="20" height="20" viewBox="0 0 20 20" fill="none" xmlns="http://www.w3.org/2000/svg">
<path d="M10 8.31579C7.28543 8.31579 4.99171 10.6446 4.25114 13.6358C3.92543 14.9512 4.41657 16.3474 5.62214 17.0034C6.57786 17.5234 7.99943 18 10 18C12.0006 18 13.4226 17.5234 14.3783 17.0034C15.5839 16.3474 16.0746 14.9512 15.7489 13.6358C15.0083 10.6442 12.7146 8.31579 10 8.31579ZM1 7.66063C1 8.82358 1.76714 10 2.71429 10C3.66143 10 4.42857 8.82358 4.42857 7.66063C4.42857 6.49768 3.66143 5.78947 2.71429 5.78947C1.76714 5.78947 1 6.49811 1 7.66063ZM19 7.66063C19 8.82358 18.2329 10 17.2857 10C16.3386 10 15.5714 8.82358 15.5714 7.66063C15.5714 6.49768 16.3386 5.78947 17.2857 5.78947C18.2329 5.78947 19 6.49811 19 7.66063ZM5.5 3.87116C5.5 5.03411 6.26714 6.21053 7.21429 6.21053C8.16143 6.21053 8.92857 5.03411 8.92857 3.87116C8.92857 2.70821 8.16143 2 7.21429 2C6.26714 2 5.5 2.70863 5.5 3.87116ZM14.5 3.87116C14.5 5.03411 13.7329 6.21053 12.7857 6.21053C11.8386 6.21053 11.0714 5.03411 11.0714 3.87116C11.0714 2.70821 11.8386 2 12.7857 2C13.7329 2 14.5 2.70863 14.5 3.87116Z" fill="#2065C0"/>
</svg>
