<svg width="18" height="18" viewBox="0 0 18 18" fill="none" xmlns="http://www.w3.org/2000/svg">
<path d="M9.5625 3.375C7.96613 3.375 6.1875 4.84481 6.1875 6.95419V7.3125H5.625C4.38412 7.3125 3.375 8.32162 3.375 9.5625C3.375 9.792 3.411 10.0187 3.48075 10.2347C2.96227 10.3936 2.50838 10.7146 2.18565 11.1504C1.86291 11.5862 1.68833 12.114 1.6875 12.6562C1.6875 14.0518 2.82319 15.1875 4.21875 15.1875H13.7812C15.1768 15.1875 16.3125 14.0518 16.3125 12.6562C16.3119 12.1138 16.1374 11.5857 15.8147 11.1497C15.4919 10.7137 15.0379 10.3926 14.5192 10.2336C14.5892 10.0164 14.6249 9.78957 14.625 9.56137C14.625 8.3205 13.6159 7.31138 12.375 7.31138H11.7743C11.6297 6.31406 11.1026 5.92425 10.7016 5.62725C10.2814 5.31562 10.0041 5.10863 10.1222 3.99656L10.1869 3.375H9.5625ZM8.97356 4.60575C9.01463 5.67619 9.47981 6.12 10.0328 6.53006C10.4265 6.82313 10.6875 7.01662 10.6875 7.875V8.4375H12.375C12.9954 8.4375 13.5 8.94206 13.5 9.5625C13.5 9.83419 13.3954 10.0991 13.2058 10.3095L12.3553 11.25H13.7812C14.5569 11.25 15.1875 11.8806 15.1875 12.6562C15.1875 13.4319 14.5569 14.0625 13.7812 14.0625H4.21875C3.84579 14.0625 3.4881 13.9143 3.22438 13.6506C2.96066 13.3869 2.8125 13.0292 2.8125 12.6562C2.8125 11.8806 3.44306 11.25 4.21875 11.25H5.64469L4.79419 10.3095C4.60759 10.1052 4.50285 9.83921 4.5 9.5625C4.5 8.94206 5.00456 8.4375 5.625 8.4375H7.3125V6.95419C7.3125 5.82919 8.11462 4.90894 8.97356 4.60575ZM6.75 9.5625C6.60082 9.5625 6.45774 9.62176 6.35225 9.72725C6.24676 9.83274 6.1875 9.97582 6.1875 10.125C6.1875 10.2742 6.24676 10.4173 6.35225 10.5227C6.45774 10.6282 6.60082 10.6875 6.75 10.6875C6.89918 10.6875 7.04226 10.6282 7.14775 10.5227C7.25324 10.4173 7.3125 10.2742 7.3125 10.125C7.3125 9.97582 7.25324 9.83274 7.14775 9.72725C7.04226 9.62176 6.89918 9.5625 6.75 9.5625ZM11.25 9.5625C11.1008 9.5625 10.9577 9.62176 10.8523 9.72725C10.7468 9.83274 10.6875 9.97582 10.6875 10.125C10.6875 10.2742 10.7468 10.4173 10.8523 10.5227C10.9577 10.6282 11.1008 10.6875 11.25 10.6875C11.3992 10.6875 11.5423 10.6282 11.6477 10.5227C11.7532 10.4173 11.8125 10.2742 11.8125 10.125C11.8125 9.97582 11.7532 9.83274 11.6477 9.72725C11.5423 9.62176 11.3992 9.5625 11.25 9.5625ZM7.875 11.25C7.875 11.5484 7.99353 11.8345 8.2045 12.0455C8.41548 12.2565 8.70163 12.375 9 12.375C9.29837 12.375 9.58452 12.2565 9.7955 12.0455C10.0065 11.8345 10.125 11.5484 10.125 11.25H7.875Z" fill="black"/>
</svg>
