<svg width="20" height="20" viewBox="0 0 20 20" fill="none" xmlns="http://www.w3.org/2000/svg">
<path d="M17.7996 2H14.1328L14.5921 6.59263C14.5921 6.59263 15.5106 7.51115 16.8884 7.51115C17.6116 7.51211 18.3103 7.24883 18.8531 6.77082C18.9107 6.71736 18.9536 6.65002 18.9777 6.57524C19.0019 6.50046 19.0064 6.42074 18.9909 6.34371L18.3424 2.45926C18.3207 2.33094 18.2543 2.21443 18.155 2.13037C18.0556 2.04632 17.9297 2.00013 17.7996 2Z" stroke="black"/>
<path d="M14.1329 2L14.5921 6.59263C14.5921 6.59263 13.6736 7.51115 12.2958 7.51115C10.918 7.51115 9.99951 6.59263 9.99951 6.59263V2H14.1329Z" stroke="black"/>
<path d="M9.99937 2V6.59263C9.99937 6.59263 9.08084 7.51115 7.70305 7.51115C6.32526 7.51115 5.40674 6.59263 5.40674 6.59263L5.866 2H9.99937Z" stroke="black"/>
<path d="M5.86618 2H2.20034C2.06991 1.99995 1.94368 2.04617 1.84411 2.13043C1.74455 2.21469 1.6781 2.33153 1.65657 2.46018L1.00901 6.34463C0.993523 6.42166 0.998056 6.50138 1.02218 6.57616C1.0463 6.65094 1.08921 6.71828 1.14679 6.77174C1.44807 7.03811 2.12135 7.51207 3.1106 7.51207C4.48839 7.51207 5.40691 6.59355 5.40691 6.59355L5.86618 2Z" stroke="black"/>
<path d="M1.73926 7.51123V16.6965C1.73926 17.1837 1.9328 17.651 2.27732 17.9955C2.62183 18.34 3.08909 18.5335 3.57631 18.5335H16.4357C16.9229 18.5335 17.3901 18.34 17.7347 17.9955C18.0792 17.651 18.2727 17.1837 18.2727 16.6965V7.51123" stroke="black"/>
<path d="M12.6083 18.5335V13.0224C12.6083 12.5351 12.4148 12.0679 12.0703 11.7234C11.7257 11.3788 11.2585 11.1853 10.7713 11.1853H8.93422C8.447 11.1853 7.97974 11.3788 7.63523 11.7234C7.29071 12.0679 7.09717 12.5351 7.09717 13.0224V18.5335" stroke="black" stroke-miterlimit="16"/>
</svg>
