<svg width="96" height="75" viewBox="0 0 96 75" fill="none" xmlns="http://www.w3.org/2000/svg">
<path d="M0 38.1645H95.94V54.1421C95.94 65.1878 86.9857 74.1421 75.94 74.1421H20C8.95432 74.1421 0 65.1877 0 54.1421V38.1645Z" fill="#023E8C"/>
<path d="M47.7559 0.75C70.6251 0.75 89.214 19.1825 89.6123 42.0801H5.89941C6.29771 19.1825 24.8866 0.750006 47.7559 0.75Z" fill="white" stroke="#023E8C" stroke-width="1.5"/>
<path d="M12.4209 31.1597C18.9766 31.1597 24.0918 35.7089 24.0918 41.0923C24.0918 42.4458 23.7742 43.4246 23.2549 44.1528C22.7332 44.8843 21.9597 45.4304 20.9316 45.8306C18.835 46.6467 15.8698 46.7915 12.4209 46.7915C8.972 46.7915 6.00676 46.6467 3.91016 45.8306C2.88213 45.4304 2.10863 44.8843 1.58691 44.1528C1.06755 43.4246 0.750034 42.4458 0.75 41.0923C0.75 35.7089 5.86519 31.1597 12.4209 31.1597Z" fill="white" stroke="#023E8C" stroke-width="1.5"/>
<path d="M83.5195 31.1597C76.9639 31.1597 71.8486 35.7089 71.8486 41.0923C71.8487 42.4458 72.1662 43.4246 72.6855 44.1528C73.2073 44.8843 73.9808 45.4304 75.0088 45.8306C77.1054 46.6467 80.0706 46.7915 83.5195 46.7915C86.9684 46.7915 89.9337 46.6467 92.0303 45.8306C93.0583 45.4304 93.8318 44.8843 94.3535 44.1528C94.8729 43.4246 95.1904 42.4458 95.1904 41.0923C95.1904 35.7089 90.0752 31.1597 83.5195 31.1597Z" fill="white" stroke="#023E8C" stroke-width="1.5"/>
<path d="M35.1209 25.6981C35.1209 27.5905 33.5869 27.6255 31.6945 27.6255C29.8021 27.6255 28.2681 27.5905 28.2681 25.6981C28.2681 23.8057 29.8021 22.2717 31.6945 22.2717C33.5869 22.2717 35.1209 23.8057 35.1209 25.6981Z" fill="#023E8C"/>
<path d="M67.244 25.6981C67.244 27.5905 65.7099 27.6255 63.8175 27.6255C61.9252 27.6255 60.3911 27.5905 60.3911 25.6981C60.3911 23.8057 61.9252 22.2717 63.8175 22.2717C65.7099 22.2717 67.244 23.8057 67.244 25.6981Z" fill="#023E8C"/>
<path d="M20.3897 6.4822C22.1155 5.40142 23.951 4.56711 25.4588 4.22137C26.215 4.04799 26.8404 4.00892 27.3094 4.08906C27.7642 4.16676 28.0206 4.34328 28.1662 4.57573C30.2327 7.87564 29.0981 12.3979 25.5041 14.6487C21.9101 16.8992 17.347 15.9454 15.2804 12.6456C15.1349 12.4132 15.0873 12.1057 15.2158 11.6629C15.3484 11.206 15.6568 10.6601 16.1427 10.0557C17.112 8.85012 18.6641 7.56296 20.3897 6.4822Z" fill="white" stroke="#023E8C" stroke-width="1.5"/>
<path d="M75.1239 6.4822C73.3982 5.40142 71.5627 4.56711 70.0549 4.22137C69.2987 4.04799 68.6733 4.00892 68.2042 4.08906C67.7495 4.16676 67.4931 4.34328 67.3475 4.57573C65.281 7.87564 66.4156 12.3979 70.0096 14.6487C73.6035 16.8992 78.1667 15.9454 80.2332 12.6456C80.3788 12.4132 80.4264 12.1057 80.2979 11.6629C80.1653 11.206 79.8568 10.6601 79.3709 10.0557C78.4017 8.85012 76.8496 7.56296 75.1239 6.4822Z" fill="white" stroke="#023E8C" stroke-width="1.5"/>
<path d="M54.2103 43.1493C54.2103 46.7805 51.3529 49.7237 47.8281 49.7237C44.3032 49.7237 41.4458 46.7805 41.4458 43.1493C41.4458 39.5181 46.1913 39.7253 47.8281 38.9746C50.9367 39.9756 54.2103 39.5181 54.2103 43.1493Z" fill="#FFAEAE"/>
<path d="M57.1698 26.1857C57.1698 21.1048 53.051 21.0109 47.9702 21.0109C42.8893 21.0109 38.7705 21.1048 38.7705 26.1857C38.7705 31.2665 42.8893 35.3853 47.9702 35.3853C53.051 35.3853 57.1698 31.2665 57.1698 26.1857Z" fill="#023E8C"/>
<path d="M47.9706 35.3856C47.9706 41.7104 36.471 45.7352 29.5713 37.1105" stroke="#023E8C" stroke-width="1.5" stroke-linecap="round"/>
<path d="M47.9703 35.3856C47.9703 41.7104 59.4699 45.7352 66.3696 37.1105" stroke="#023E8C" stroke-width="1.5" stroke-linecap="round"/>
</svg>

