<svg width="20" height="22" viewBox="0 0 20 22" fill="none" xmlns="http://www.w3.org/2000/svg">
<path d="M4.34814 0.5C4.68376 0.500042 5.00358 0.636111 5.23779 0.875C5.47173 1.11378 5.60205 1.43618 5.60205 1.76953C5.60197 2.10278 5.47166 2.42438 5.23779 2.66309C5.00357 2.90209 4.68385 3.03804 4.34814 3.03809H3.59424C3.53041 3.03812 3.4668 3.064 3.41846 3.11328C3.36974 3.163 3.34035 3.23297 3.34033 3.30762V6.38477C3.34037 7.27526 3.68747 8.1272 4.30127 8.75391C4.91499 9.38033 5.74547 9.73047 6.60889 9.73047C7.03655 9.73046 7.46027 9.64481 7.85596 9.47754C8.25173 9.31021 8.61255 9.06415 8.9165 8.75391C9.22016 8.44386 9.46149 8.07527 9.62646 7.66895C9.7915 7.26226 9.87742 6.82554 9.87744 6.38477V3.30762C9.87742 3.23297 9.84803 3.163 9.79932 3.11328C9.75098 3.06399 9.68735 3.03814 9.62354 3.03809H8.86963C8.53391 3.03806 8.21422 2.90209 7.97998 2.66309C7.74612 2.42438 7.6158 2.10278 7.61572 1.76953C7.61572 1.43618 7.74605 1.11378 7.97998 0.875C8.2142 0.636116 8.534 0.500026 8.86963 0.5H9.62354C10.359 0.500051 11.0627 0.798574 11.5796 1.32617C12.096 1.85342 12.3843 2.5664 12.3843 3.30762V6.38379L12.3735 6.73828C12.3253 7.56263 12.1073 8.3695 11.731 9.10449C11.3073 9.93181 10.6949 10.6437 9.9458 11.1826C9.32438 11.7398 8.81865 12.4198 8.46045 13.1826C8.10309 13.9438 7.89979 14.7714 7.86279 15.6152L7.8667 15.7822C7.90712 16.612 8.24813 17.3978 8.82373 17.9854C9.43736 18.6115 10.2672 18.9619 11.1304 18.9619C11.9937 18.9619 12.8243 18.6117 13.438 17.9854C14.052 17.3586 14.3989 16.506 14.3989 15.6152V15.0977C13.7266 14.8362 13.146 14.3727 12.7407 13.7627C12.2624 13.0426 12.0584 12.1704 12.1655 11.3096C12.2727 10.4487 12.6846 9.6556 13.3257 9.0791C13.967 8.50246 14.7937 8.18274 15.6519 8.18262C16.5102 8.18262 17.3376 8.50234 17.979 9.0791C18.6201 9.6556 19.032 10.4487 19.1392 11.3096C19.2463 12.1703 19.0423 13.0426 18.564 13.7627C18.1587 14.3727 17.5781 14.8362 16.9058 15.0977V15.6152C16.9058 17.1725 16.3 18.6682 15.2183 19.7725C14.136 20.8771 12.6654 21.5 11.1304 21.5C9.59538 21.4999 8.12567 20.8771 7.04346 19.7725C5.96156 18.6681 5.35498 17.1726 5.35498 15.6152C5.31986 14.7721 5.11828 13.945 4.76318 13.1836C4.40719 12.4204 3.90406 11.7393 3.28467 11.1807C2.53422 10.6438 1.91951 9.9336 1.49365 9.10742C1.06074 8.26743 0.834553 7.33282 0.833496 6.38477V3.30762C0.833516 2.56639 1.12177 1.85342 1.63818 1.32617C2.15509 0.798559 2.85871 0.500034 3.59424 0.5H4.34814ZM15.6519 10.7305C15.3883 10.7306 15.1334 10.8378 14.9438 11.0312C14.7538 11.2252 14.645 11.4908 14.645 11.7695C14.6451 12.0481 14.7539 12.3129 14.9438 12.5068C15.1335 12.7004 15.3882 12.8075 15.6519 12.8076C15.9156 12.8076 16.1711 12.7005 16.3608 12.5068C16.5508 12.3129 16.6596 12.0481 16.6597 11.7695C16.6597 11.4908 16.5509 11.2252 16.3608 11.0312C16.1711 10.8376 15.9156 10.7305 15.6519 10.7305Z" stroke="black"/>
</svg>
